<?xml version="1.0" encoding="UTF-8" standalone="no"?>
<!-- Generated by IcoMoon.io -->

<svg
   xmlns:dc="http://purl.org/dc/elements/1.1/"
   xmlns:cc="http://creativecommons.org/ns#"
   xmlns:rdf="http://www.w3.org/1999/02/22-rdf-syntax-ns#"
   xmlns:svg="http://www.w3.org/2000/svg"
   xmlns="http://www.w3.org/2000/svg"
   xmlns:sodipodi="http://sodipodi.sourceforge.net/DTD/sodipodi-0.dtd"
   xmlns:inkscape="http://www.inkscape.org/namespaces/inkscape"
   version="1.1"
   width="32"
   height="32"
   viewBox="0 0 32 32"
   id="svg2"
   inkscape:version="0.48.0 r9654"
   sodipodi:docname="alert.svg">
  <metadata
     id="metadata12">
    <rdf:RDF>
      <cc:Work
         rdf:about="">
        <dc:format>image/svg+xml</dc:format>
        <dc:type
           rdf:resource="http://purl.org/dc/dcmitype/StillImage" />
      </cc:Work>
    </rdf:RDF>
  </metadata>
  <defs
     id="defs10" />
  <sodipodi:namedview
     pagecolor="#ffffff"
     bordercolor="#666666"
     borderopacity="1"
     objecttolerance="10"
     gridtolerance="10"
     guidetolerance="10"
     inkscape:pageopacity="0"
     inkscape:pageshadow="2"
     inkscape:window-width="1920"
     inkscape:window-height="1017"
     id="namedview8"
     showgrid="false"
     inkscape:zoom="8.15625"
     inkscape:cx="1.348659"
     inkscape:cy="16"
     inkscape:window-x="-8"
     inkscape:window-y="-8"
     inkscape:window-maximized="1"
     inkscape:current-layer="svg2" />
  <title
     id="title4">alert</title>
  <path
     d="m 16.002,28.3135 c -1.438,0 -2.563,-1.188 -2.563,-2.688 0,-0.125 0.188,-0.188 0.313,-0.125 0.063,0 0.125,0.063 0.125,0.125 0.063,1.25 0.938,2.188 2.125,2.188 0.125,0 0.25,0.063 0.313,0.188 0,0.125 -0.063,0.25 -0.188,0.313 -0.063,0 -0.063,0 -0.125,0 z m 12.125,-4.625 c -0.5,-0.375 -0.938,-0.813 -1.313,-1.313 -0.5,-0.563 -0.938,-1.125 -1.25,-1.813 -0.438,-0.75 -0.813,-1.563 -1.125,-2.375 -0.313,-1 -0.563,-2 -0.688,-3.063 -0.188,-1.313 -0.313,-2.625 -0.313,-3.938 0,-1.625 -0.625,-3.125 -1.688,-4.25 -1.188,-1.313 -2.75,-2.188 -4.5,-2.375 0.125,-0.188 0.125,-0.438 0.125,-0.625 0,-0.813 -0.625,-1.438 -1.375,-1.438 -0.75,0 -1.375,0.625 -1.375,1.438 0,0.188 0,0.438 0.063,0.625 -1.688,0.188 -3.313,1.063 -4.438,2.375 -1.063,1.125 -1.688,2.625 -1.688,4.25 0,1.313 -0.125,2.625 -0.313,3.938 -0.125,1.063 -0.375,2.063 -0.688,3.063 -0.313,0.813 -0.688,1.625 -1.125,2.375 -0.313,0.688 -0.75,1.25 -1.25,1.813 -0.375,0.5 -0.813,0.938 -1.313,1.313 0,1.063 0.875,1.938 1.875,1.938 h 6.5 c 0,2.125 1.688,3.875 3.75,3.875 2.062,0 3.75,-1.75 3.75,-3.875 h 6.5 c 1,0 1.875,-0.875 1.875,-1.938 z"
     id="path6"
     inkscape:connector-curvature="0" />
</svg>
