<?xml version="1.0" encoding="UTF-8" standalone="no"?>
<!-- Generated by IcoMoon.io -->

<svg
   xmlns:dc="http://purl.org/dc/elements/1.1/"
   xmlns:cc="http://creativecommons.org/ns#"
   xmlns:rdf="http://www.w3.org/1999/02/22-rdf-syntax-ns#"
   xmlns:svg="http://www.w3.org/2000/svg"
   xmlns="http://www.w3.org/2000/svg"
   xmlns:sodipodi="http://sodipodi.sourceforge.net/DTD/sodipodi-0.dtd"
   xmlns:inkscape="http://www.inkscape.org/namespaces/inkscape"
   version="1.1"
   width="32"
   height="32"
   viewBox="0 0 32 32"
   id="svg6"
   sodipodi:docname="angle-left.svg"
   inkscape:version="0.92.2 (5c3e80d, 2017-08-06)">
  <metadata
     id="metadata12">
    <rdf:RDF>
      <cc:Work
         rdf:about="">
        <dc:format>image/svg+xml</dc:format>
        <dc:type
           rdf:resource="http://purl.org/dc/dcmitype/StillImage" />
      </cc:Work>
    </rdf:RDF>
  </metadata>
  <defs
     id="defs10" />
  <sodipodi:namedview
     pagecolor="#ffffff"
     bordercolor="#666666"
     borderopacity="1"
     objecttolerance="10"
     gridtolerance="10"
     guidetolerance="10"
     inkscape:pageopacity="0"
     inkscape:pageshadow="2"
     inkscape:window-width="1920"
     inkscape:window-height="1017"
     id="namedview8"
     showgrid="false"
     inkscape:zoom="7.375"
     inkscape:cx="16"
     inkscape:cy="16"
     inkscape:window-x="-8"
     inkscape:window-y="-8"
     inkscape:window-maximized="1"
     inkscape:current-layer="svg6" />
  <title
     id="title2">angle-left</title>
  <path
     d="m 21.22,8.5305 c 0,0.188 -0.063,0.313 -0.188,0.438 l -7,7 7,7.063 c 0.125,0.063 0.188,0.25 0.188,0.375 0,0.188 -0.063,0.313 -0.188,0.438 l -0.875,0.875 c -0.125,0.125 -0.313,0.188 -0.438,0.188 -0.125,0 -0.313,-0.063 -0.438,-0.188 l -8.313,-8.313 c -0.125,-0.125 -0.188,-0.25 -0.188,-0.438 0,-0.125 0.063,-0.25 0.188,-0.375 l 8.313,-8.313 c 0.125,-0.125 0.313,-0.188 0.438,-0.188 0.125,0 0.313,0.063 0.438,0.188 l 0.875,0.875 c 0.125,0.125 0.188,0.25 0.188,0.375 z"
     id="path4"
     inkscape:connector-curvature="0" />
</svg>
