<?xml version="1.0" encoding="UTF-8" standalone="no"?>
<!-- Generated by IcoMoon.io -->

<svg
   xmlns:dc="http://purl.org/dc/elements/1.1/"
   xmlns:cc="http://creativecommons.org/ns#"
   xmlns:rdf="http://www.w3.org/1999/02/22-rdf-syntax-ns#"
   xmlns:svg="http://www.w3.org/2000/svg"
   xmlns="http://www.w3.org/2000/svg"
   xmlns:sodipodi="http://sodipodi.sourceforge.net/DTD/sodipodi-0.dtd"
   xmlns:inkscape="http://www.inkscape.org/namespaces/inkscape"
   version="1.1"
   width="32"
   height="32"
   viewBox="0 0 32 32"
   id="svg2"
   inkscape:version="0.48.0 r9654"
   sodipodi:docname="back7.svg">
  <metadata
     id="metadata12">
    <rdf:RDF>
      <cc:Work
         rdf:about="">
        <dc:format>image/svg+xml</dc:format>
        <dc:type
           rdf:resource="http://purl.org/dc/dcmitype/StillImage" />
      </cc:Work>
    </rdf:RDF>
  </metadata>
  <defs
     id="defs10" />
  <sodipodi:namedview
     pagecolor="#ffffff"
     bordercolor="#666666"
     borderopacity="1"
     objecttolerance="10"
     gridtolerance="10"
     guidetolerance="10"
     inkscape:pageopacity="0"
     inkscape:pageshadow="2"
     inkscape:window-width="1920"
     inkscape:window-height="1017"
     id="namedview8"
     showgrid="false"
     inkscape:zoom="8.15625"
     inkscape:cx="1.348659"
     inkscape:cy="16"
     inkscape:window-x="-8"
     inkscape:window-y="-8"
     inkscape:window-maximized="1"
     inkscape:current-layer="svg2" />
  <title
     id="title4">back7</title>
  <path
     d="m 11.969,17.1875 v -1.625 h 6.75 v 1.625 l -3.438,9.625 h -1.75 l 3.438,-9.625 z m 3.375,-12 c -1.875,0 -3.688,0.375 -5.438,1.125 -1.75,0.75 -3.188,1.75 -4.438,3 L 3.843,7.6875 c -0.25,-0.25 -0.5,-0.313 -0.75,-0.188 -0.313,0.125 -0.438,0.313 -0.438,0.625 v 4.688 c 0,0.188 0.063,0.313 0.188,0.5 0.125,0.125 0.313,0.188 0.5,0.188 h 4.688 c 0.25,0 0.5,-0.125 0.625,-0.375 0.063,-0.313 0.063,-0.563 -0.125,-0.75 l -1.688,-1.625 c 1.063,-1.125 2.375,-2 3.875,-2.625 1.438,-0.625 3,-0.938 4.625,-0.938 1.625,0 3.188,0.313 4.688,0.938 1.438,0.625 2.688,1.5 3.813,2.625 1.063,1.063 1.875,2.313 2.563,3.813 0.625,1.438 0.938,3 0.938,4.625 h 2 c 0,-1.875 -0.375,-3.688 -1.125,-5.438 -0.75,-1.75 -1.688,-3.188 -2.938,-4.438 -1.25,-1.25 -2.75,-2.25 -4.5,-3 -1.75,-0.75 -3.563,-1.125 -5.438,-1.125 z"
     id="path6"
     inkscape:connector-curvature="0" />
</svg>
