<?xml version="1.0" encoding="UTF-8" standalone="no"?>
<!-- Generated by IcoMoon.io -->

<svg
   xmlns:dc="http://purl.org/dc/elements/1.1/"
   xmlns:cc="http://creativecommons.org/ns#"
   xmlns:rdf="http://www.w3.org/1999/02/22-rdf-syntax-ns#"
   xmlns:svg="http://www.w3.org/2000/svg"
   xmlns="http://www.w3.org/2000/svg"
   xmlns:sodipodi="http://sodipodi.sourceforge.net/DTD/sodipodi-0.dtd"
   xmlns:inkscape="http://www.inkscape.org/namespaces/inkscape"
   version="1.1"
   width="32"
   height="32"
   viewBox="0 0 32 32"
   id="svg2"
   inkscape:version="0.48.0 r9654"
   sodipodi:docname="cast.svg">
  <metadata
     id="metadata12">
    <rdf:RDF>
      <cc:Work
         rdf:about="">
        <dc:format>image/svg+xml</dc:format>
        <dc:type
           rdf:resource="http://purl.org/dc/dcmitype/StillImage" />
      </cc:Work>
    </rdf:RDF>
  </metadata>
  <defs
     id="defs10" />
  <sodipodi:namedview
     pagecolor="#ffffff"
     bordercolor="#666666"
     borderopacity="1"
     objecttolerance="10"
     gridtolerance="10"
     guidetolerance="10"
     inkscape:pageopacity="0"
     inkscape:pageshadow="2"
     inkscape:window-width="1920"
     inkscape:window-height="1017"
     id="namedview8"
     showgrid="false"
     inkscape:zoom="8.15625"
     inkscape:cx="1.348659"
     inkscape:cy="16"
     inkscape:window-x="-8"
     inkscape:window-y="-8"
     inkscape:window-maximized="1"
     inkscape:current-layer="svg2" />
  <title
     id="title4">cast</title>
  <path
     d="m 1.9995,23.031 v 4 h 4 c 0,-2.125 -1.875,-4 -4,-4 z m 0,-5 v 3 c 3.5,0 6,2.5 6,6 h 3 c 0,-4.938 -4.063,-9 -9,-9 z m 0,-5 v 3 c 6.313,0 11,4.688 11,11 h 3 c 0,-7.75 -6.25,-14 -14,-14 z m 25.438,-8.062 c -7.625,0.063 -15.25,0.063 -22.875,0 -1.438,0 -2.563,1.188 -2.563,2.563 v 3.5 h 3 v -3 h 22 v 16 h -9 v 3 h 9.438 c 1.438,0 2.563,-1.125 2.563,-2.563 V 7.531 c 0,-1.375 -1.125,-2.563 -2.563,-2.563 z"
     id="path6"
     inkscape:connector-curvature="0" />
</svg>
