<?xml version="1.0" encoding="UTF-8" standalone="no"?>
<!-- Generated by IcoMoon.io -->

<svg
   xmlns:dc="http://purl.org/dc/elements/1.1/"
   xmlns:cc="http://creativecommons.org/ns#"
   xmlns:rdf="http://www.w3.org/1999/02/22-rdf-syntax-ns#"
   xmlns:svg="http://www.w3.org/2000/svg"
   xmlns="http://www.w3.org/2000/svg"
   xmlns:sodipodi="http://sodipodi.sourceforge.net/DTD/sodipodi-0.dtd"
   xmlns:inkscape="http://www.inkscape.org/namespaces/inkscape"
   version="1.1"
   width="32"
   height="32"
   viewBox="0 0 32 32"
   id="svg6"
   sodipodi:docname="check.svg"
   inkscape:version="0.92.2 (5c3e80d, 2017-08-06)">
  <metadata
     id="metadata12">
    <rdf:RDF>
      <cc:Work
         rdf:about="">
        <dc:format>image/svg+xml</dc:format>
        <dc:type
           rdf:resource="http://purl.org/dc/dcmitype/StillImage" />
      </cc:Work>
    </rdf:RDF>
  </metadata>
  <defs
     id="defs10" />
  <sodipodi:namedview
     pagecolor="#ffffff"
     bordercolor="#666666"
     borderopacity="1"
     objecttolerance="10"
     gridtolerance="10"
     guidetolerance="10"
     inkscape:pageopacity="0"
     inkscape:pageshadow="2"
     inkscape:window-width="686"
     inkscape:window-height="480"
     id="namedview8"
     showgrid="false"
     inkscape:zoom="7.375"
     inkscape:cx="16"
     inkscape:cy="16"
     inkscape:window-x="0"
     inkscape:window-y="0"
     inkscape:window-maximized="0"
     inkscape:current-layer="svg6" />
  <title
     id="title2">check</title>
  <path
     d="m 29.813,9.5625 c 0,0.438 -0.125,0.875 -0.5,1.188 L 14,26.1255 c -0.375,0.313 -0.75,0.5 -1.25,0.5 -0.438,0 -0.875,-0.188 -1.188,-0.5 l -8.875,-8.875 c -0.375,-0.375 -0.5,-0.75 -0.5,-1.25 0,-0.438 0.125,-0.875 0.5,-1.188 l 2.375,-2.438 c 0.375,-0.313 0.75,-0.5 1.25,-0.5 0.438,0 0.875,0.188 1.188,0.5 l 5.25,5.25 11.75,-11.75 c 0.313,-0.313 0.75,-0.5 1.188,-0.5 0.5,0 0.875,0.188 1.25,0.5 l 2.375,2.438 c 0.375,0.375 0.5,0.75 0.5,1.25 z"
     id="path4"
     inkscape:connector-curvature="0" />
</svg>
