<?xml version="1.0" encoding="UTF-8" standalone="no"?>
<!-- Generated by IcoMoon.io -->

<svg
   xmlns:dc="http://purl.org/dc/elements/1.1/"
   xmlns:cc="http://creativecommons.org/ns#"
   xmlns:rdf="http://www.w3.org/1999/02/22-rdf-syntax-ns#"
   xmlns:svg="http://www.w3.org/2000/svg"
   xmlns="http://www.w3.org/2000/svg"
   xmlns:sodipodi="http://sodipodi.sourceforge.net/DTD/sodipodi-0.dtd"
   xmlns:inkscape="http://www.inkscape.org/namespaces/inkscape"
   version="1.1"
   width="32"
   height="32"
   viewBox="0 0 32 32"
   id="svg2"
   inkscape:version="0.48.0 r9654"
   sodipodi:docname="circle-edit.svg">
  <metadata
     id="metadata12">
    <rdf:RDF>
      <cc:Work
         rdf:about="">
        <dc:format>image/svg+xml</dc:format>
        <dc:type
           rdf:resource="http://purl.org/dc/dcmitype/StillImage" />
        <dc:title>circle-edit</dc:title>
      </cc:Work>
    </rdf:RDF>
  </metadata>
  <defs
     id="defs10" />
  <sodipodi:namedview
     pagecolor="#ffffff"
     bordercolor="#666666"
     borderopacity="1"
     objecttolerance="10"
     gridtolerance="10"
     guidetolerance="10"
     inkscape:pageopacity="0"
     inkscape:pageshadow="2"
     inkscape:window-width="1920"
     inkscape:window-height="1017"
     id="namedview8"
     showgrid="false"
     inkscape:zoom="8.15625"
     inkscape:cx="1.348659"
     inkscape:cy="16"
     inkscape:window-x="1912"
     inkscape:window-y="-8"
     inkscape:window-maximized="1"
     inkscape:current-layer="svg2" />
  <title
     id="title4">circle-edit</title>
  <path
     d="m 14.7805,26 v -3.438 l 6.813,-6.813 3.438,3.438 -6.813,6.813 z m 1.063,-2.125 h 1.063 v 1.063 h 0.875 l 0.75,-0.75 -1.938,-1.938 -0.75,0.75 v 0.875 z m 1.375,-2.062 c 0,0.125 0.063,0.188 0.188,0.188 0.063,0 0.125,-0.063 0.125,-0.063 l 4.5,-4.5 c 0,0 0,-0.063 0,-0.125 0,-0.125 -0.063,-0.188 -0.125,-0.188 -0.062,0 -0.125,0.063 -0.188,0.063 l -4.438,4.438 c -0.063,0.063 -0.063,0.125 -0.063,0.188 z m 4.937,-6.563 1.375,-1.375 c 0.188,-0.188 0.438,-0.313 0.688,-0.313 0.313,0 0.563,0.125 0.75,0.313 l 1.938,1.938 c 0.188,0.188 0.313,0.438 0.313,0.75 0,0.25 -0.125,0.5 -0.313,0.688 l -1.375,1.375 z M 13.7805,6 c -2.375,0 -4.688,1 -6.375,2.625 -1.625,1.688 -2.625,4 -2.625,6.375 0,4.375 3.625,8.438 8,8.938 V 21.75 c 3.188,-2.938 6.25,-6.5 9.375,-9.25 l 0.25,-0.125 C 21.2805,8.687 17.5925,6 13.7805,6 z"
     id="path6"
     inkscape:connector-curvature="0" />
</svg>
