<?xml version="1.0" encoding="UTF-8" standalone="no"?>
<!-- Generated by IcoMoon.io -->

<svg
   xmlns:dc="http://purl.org/dc/elements/1.1/"
   xmlns:cc="http://creativecommons.org/ns#"
   xmlns:rdf="http://www.w3.org/1999/02/22-rdf-syntax-ns#"
   xmlns:svg="http://www.w3.org/2000/svg"
   xmlns="http://www.w3.org/2000/svg"
   xmlns:sodipodi="http://sodipodi.sourceforge.net/DTD/sodipodi-0.dtd"
   xmlns:inkscape="http://www.inkscape.org/namespaces/inkscape"
   version="1.1"
   width="32"
   height="32"
   viewBox="0 0 32 32"
   id="svg6"
   sodipodi:docname="commenting-o.svg"
   inkscape:version="0.92.2 (5c3e80d, 2017-08-06)">
  <metadata
     id="metadata12">
    <rdf:RDF>
      <cc:Work
         rdf:about="">
        <dc:format>image/svg+xml</dc:format>
        <dc:type
           rdf:resource="http://purl.org/dc/dcmitype/StillImage" />
      </cc:Work>
    </rdf:RDF>
  </metadata>
  <defs
     id="defs10" />
  <sodipodi:namedview
     pagecolor="#ffffff"
     bordercolor="#666666"
     borderopacity="1"
     objecttolerance="10"
     gridtolerance="10"
     guidetolerance="10"
     inkscape:pageopacity="0"
     inkscape:pageshadow="2"
     inkscape:window-width="1920"
     inkscape:window-height="1017"
     id="namedview8"
     showgrid="false"
     inkscape:zoom="7.375"
     inkscape:cx="16"
     inkscape:cy="16"
     inkscape:window-x="-8"
     inkscape:window-y="-8"
     inkscape:window-maximized="1"
     inkscape:current-layer="svg6" />
  <title
     id="title2">commenting-o</title>
  <path
     d="m 11.437,15.999 c 0,0.625 -0.25,1.188 -0.688,1.625 -0.438,0.437 -1,0.688 -1.625,0.688 -0.625,0 -1.125,-0.25 -1.625,-0.688 -0.438,-0.438 -0.625,-1 -0.625,-1.625 0,-0.625 0.188,-1.188 0.625,-1.625 0.5,-0.438 1,-0.688 1.625,-0.688 0.625,0 1.188,0.25 1.625,0.688 0.438,0.438 0.688,1 0.688,1.625 z m 6.875,0 c 0,0.625 -0.25,1.188 -0.688,1.625 -0.438,0.437 -1,0.688 -1.625,0.688 -0.625,0 -1.188,-0.25 -1.625,-0.688 -0.437,-0.438 -0.688,-1 -0.688,-1.625 0,-0.625 0.25,-1.188 0.688,-1.625 0.438,-0.437 1,-0.688 1.625,-0.688 0.625,0 1.188,0.25 1.625,0.688 0.437,0.438 0.688,1 0.688,1.625 z m 6.812,0 c 0,0.625 -0.188,1.188 -0.625,1.625 -0.5,0.438 -1,0.688 -1.625,0.688 -0.625,0 -1.188,-0.25 -1.625,-0.688 -0.438,-0.438 -0.688,-1 -0.688,-1.625 0,-0.625 0.25,-1.188 0.688,-1.625 0.438,-0.438 1,-0.688 1.625,-0.688 0.625,0 1.125,0.25 1.625,0.688 0.438,0.438 0.625,1 0.625,1.625 z M 15.999,6.874 c -2.438,0 -4.688,0.375 -6.813,1.25 C 7.061,8.937 5.373,10.062 4.123,11.437 2.935,12.875 2.31,14.375 2.31,16 c 0,1.313 0.375,2.625 1.25,3.813 0.875,1.188 2.063,2.25 3.625,3.125 l 1.5,0.875 -0.438,1.75 c -0.313,1.063 -0.75,2.125 -1.25,3.063 1.813,-0.75 3.438,-1.75 4.875,-3.063 l 0.813,-0.688 1,0.125 c 0.813,0.125 1.563,0.125 2.313,0.125 2.438,0 4.688,-0.375 6.813,-1.25 2.125,-0.813 3.813,-1.938 5.063,-3.313 1.188,-1.438 1.813,-2.938 1.813,-4.563 0,-1.625 -0.625,-3.125 -1.813,-4.563 -1.25,-1.375 -2.938,-2.5 -5.063,-3.313 -2.125,-0.875 -4.375,-1.25 -6.813,-1.25 z m 16,9.125 c 0,2.063 -0.688,4 -2.125,5.75 -1.437,1.75 -3.375,3.125 -5.813,4.125 -2.5,1.063 -5.188,1.563 -8.063,1.563 -0.813,0 -1.688,-0.063 -2.563,-0.125 -2.375,2.063 -5.125,3.5 -8.25,4.313 -0.563,0.125 -1.25,0.25 -2,0.375 H 3.06 C 2.872,32 2.747,31.937 2.56,31.812 2.435,31.687 2.372,31.499 2.31,31.312 v 0 c -0.063,-0.063 -0.063,-0.125 0,-0.25 0,-0.063 0,-0.125 0,-0.125 0,-0.063 0.063,-0.125 0.125,-0.188 l 0.063,-0.188 0.313,-0.313 c 0.063,-0.063 0.25,-0.313 0.5,-0.625 0.313,-0.313 0.5,-0.5 0.625,-0.625 0.125,-0.188 0.313,-0.375 0.563,-0.75 0.25,-0.313 0.438,-0.625 0.563,-0.875 0.188,-0.313 0.313,-0.625 0.5,-1.063 0.187,-0.438 0.313,-0.875 0.5,-1.375 -1.875,-1.063 -3.375,-2.375 -4.438,-3.938 -1.063,-1.563 -1.625,-3.188 -1.625,-5 0,-1.563 0.438,-3 1.25,-4.438 0.875,-1.438 2,-2.625 3.438,-3.625 1.438,-1.063 3.125,-1.875 5.125,-2.438 1.938,-0.625 4,-0.938 6.188,-0.938 2.188,0 4.25,0.313 6.188,0.938 2,0.563 3.688,1.375 5.125,2.438 1.438,1 2.563,2.188 3.438,3.625 0.813,1.438 1.25,2.875 1.25,4.438 z"
     id="path4"
     inkscape:connector-curvature="0" />
</svg>
