<?xml version="1.0" encoding="UTF-8" standalone="no"?>
<!-- Generated by IcoMoon.io -->

<svg
   xmlns:dc="http://purl.org/dc/elements/1.1/"
   xmlns:cc="http://creativecommons.org/ns#"
   xmlns:rdf="http://www.w3.org/1999/02/22-rdf-syntax-ns#"
   xmlns:svg="http://www.w3.org/2000/svg"
   xmlns="http://www.w3.org/2000/svg"
   xmlns:sodipodi="http://sodipodi.sourceforge.net/DTD/sodipodi-0.dtd"
   xmlns:inkscape="http://www.inkscape.org/namespaces/inkscape"
   version="1.1"
   width="32"
   height="32"
   viewBox="0 0 32 32"
   id="svg6"
   sodipodi:docname="comments-o.svg"
   inkscape:version="0.92.2 (5c3e80d, 2017-08-06)">
  <metadata
     id="metadata12">
    <rdf:RDF>
      <cc:Work
         rdf:about="">
        <dc:format>image/svg+xml</dc:format>
        <dc:type
           rdf:resource="http://purl.org/dc/dcmitype/StillImage" />
      </cc:Work>
    </rdf:RDF>
  </metadata>
  <defs
     id="defs10" />
  <sodipodi:namedview
     pagecolor="#ffffff"
     bordercolor="#666666"
     borderopacity="1"
     objecttolerance="10"
     gridtolerance="10"
     guidetolerance="10"
     inkscape:pageopacity="0"
     inkscape:pageshadow="2"
     inkscape:window-width="686"
     inkscape:window-height="480"
     id="namedview8"
     showgrid="false"
     inkscape:zoom="7.375"
     inkscape:cx="16"
     inkscape:cy="16"
     inkscape:window-x="0"
     inkscape:window-y="0"
     inkscape:window-maximized="0"
     inkscape:current-layer="svg6" />
  <title
     id="title2">comments-o</title>
  <path
     d="m 12.559,5.7371328 c -1.813,0 -3.5,0.313 -5.125,0.938 -1.563,0.563 -2.813,1.438 -3.75,2.5 -0.937,1.0620002 -1.375,2.1880002 -1.375,3.3750002 0,1 0.313,1.938 0.938,2.875 0.625,0.875 1.5,1.688 2.625,2.313 l 1.75,1 -0.625,1.5 c 0.375,-0.25 0.75,-0.438 1.125,-0.688 l 0.75,-0.563 0.938,0.188 c 0.938,0.188 1.875,0.25 2.75,0.25 1.813,0 3.563,-0.313 5.125,-0.938 1.562,-0.625 2.813,-1.438 3.75,-2.5 0.938,-1.063 1.438,-2.188 1.438,-3.438 0,-1.188 -0.5,-2.313 -1.438,-3.3750002 -0.938,-1.062 -2.188,-1.938 -3.75,-2.5 -1.563,-0.625 -3.313,-0.938 -5.125,-0.938 z m 0,-2.312 c 2.313,0 4.375,0.438 6.313,1.25 1.938,0.812 3.5,1.938 4.563,3.313 1.125,1.375 1.688,2.9380002 1.688,4.5630002 0,1.688 -0.563,3.188 -1.688,4.625 -1.063,1.375 -2.625,2.5 -4.563,3.313 -1.938,0.813 -4,1.25 -6.313,1.25 -1,0 -2.063,-0.125 -3.125,-0.313 -1.5,1.063 -3.125,1.813 -5,2.313 -0.375,0.063 -0.938,0.188 -1.5,0.25 H 2.871 c -0.125,0 -0.25,0 -0.375,-0.125 -0.125,-0.125 -0.188,-0.25 -0.188,-0.375 0,-0.063 0,-0.063 0,-0.125 0,-0.062 0,-0.063 -0.063,-0.125 0,0 0.063,-0.063 0.063,-0.063 l 0.063,-0.125 0.063,-0.063 0.063,-0.125 0.063,-0.063 0.063,-0.125 c 0.063,-0.063 0.188,-0.188 0.438,-0.438 0.188,-0.188 0.375,-0.375 0.438,-0.5 0.125,-0.125 0.25,-0.313 0.438,-0.5 0.125,-0.25 0.313,-0.5 0.438,-0.688 0.125,-0.25 0.25,-0.5 0.375,-0.813 -1.5,-0.875 -2.625,-1.938 -3.5,-3.188 -0.875,-1.25 -1.25,-2.563 -1.25,-4 0,-1.625 0.563,-3.1880002 1.688,-4.5630002 1.063,-1.375 2.625,-2.5 4.563,-3.313 1.938,-0.813 4,-1.25 6.313,-1.25 z M 27.246,24.300133 c 0.125,0.313 0.25,0.563 0.375,0.813 0.125,0.25 0.25,0.438 0.438,0.688 0.188,0.188 0.313,0.375 0.375,0.5 0.125,0.125 0.25,0.313 0.5,0.5 0.188,0.25 0.313,0.375 0.375,0.5 0.063,0 0.063,0 0.125,0.063 0,0.063 0.063,0.063 0.063,0.063 0,0.063 0.063,0.063 0.063,0.125 0,0 0.063,0.063 0.063,0.063 l 0.063,0.125 v 0.313 c 0,0.188 -0.125,0.313 -0.25,0.375 -0.063,0.125 -0.25,0.188 -0.375,0.125 -0.563,-0.063 -1.125,-0.125 -1.5,-0.25 -1.875,-0.5 -3.5,-1.25 -5,-2.313 -1.063,0.188 -2.125,0.313 -3.125,0.313 -3.25,0 -6.063,-0.813 -8.438,-2.375 0.688,0.063 1.188,0.063 1.563,0.063 1.938,0 3.75,-0.25 5.5,-0.813 1.813,-0.5 3.375,-1.25 4.75,-2.25 1.5,-1.125 2.625,-2.375 3.438,-3.813 0.75,-1.438 1.188,-2.938 1.188,-4.563 0,-0.875 -0.125,-1.813 -0.438,-2.6880002 1.563,0.8750002 2.75,1.8750002 3.688,3.1880002 0.875,1.25 1.313,2.625 1.313,4.125 0,1.375 -0.438,2.75 -1.25,4 -0.875,1.25 -2,2.25 -3.5,3.125 z"
     id="path4"
     inkscape:connector-curvature="0" />
</svg>
