<?xml version="1.0" encoding="UTF-8" standalone="no"?>
<!-- Generated by IcoMoon.io -->

<svg
   xmlns:dc="http://purl.org/dc/elements/1.1/"
   xmlns:cc="http://creativecommons.org/ns#"
   xmlns:rdf="http://www.w3.org/1999/02/22-rdf-syntax-ns#"
   xmlns:svg="http://www.w3.org/2000/svg"
   xmlns="http://www.w3.org/2000/svg"
   xmlns:sodipodi="http://sodipodi.sourceforge.net/DTD/sodipodi-0.dtd"
   xmlns:inkscape="http://www.inkscape.org/namespaces/inkscape"
   version="1.1"
   width="32"
   height="32"
   viewBox="0 0 32 32"
   id="svg6"
   sodipodi:docname="compress.svg"
   inkscape:version="0.92.2 (5c3e80d, 2017-08-06)">
  <metadata
     id="metadata12">
    <rdf:RDF>
      <cc:Work
         rdf:about="">
        <dc:format>image/svg+xml</dc:format>
        <dc:type
           rdf:resource="http://purl.org/dc/dcmitype/StillImage" />
      </cc:Work>
    </rdf:RDF>
  </metadata>
  <defs
     id="defs10" />
  <sodipodi:namedview
     pagecolor="#ffffff"
     bordercolor="#666666"
     borderopacity="1"
     objecttolerance="10"
     gridtolerance="10"
     guidetolerance="10"
     inkscape:pageopacity="0"
     inkscape:pageshadow="2"
     inkscape:window-width="686"
     inkscape:window-height="480"
     id="namedview8"
     showgrid="false"
     inkscape:zoom="7.375"
     inkscape:cx="16"
     inkscape:cy="16"
     inkscape:window-x="0"
     inkscape:window-y="0"
     inkscape:window-maximized="0"
     inkscape:current-layer="svg6" />
  <title
     id="title2">compress</title>
  <path
     d="m 16.001,17.124 v 8 c 0,0.313 -0.125,0.625 -0.313,0.813 -0.25,0.25 -0.5,0.375 -0.813,0.375 -0.313,0 -0.625,-0.125 -0.813,-0.375 L 11.499,23.374 5.561,29.312 C 5.436,29.437 5.311,29.5 5.123,29.5 4.998,29.5 4.873,29.437 4.748,29.312 L 2.685,27.249 C 2.56,27.124 2.497,26.999 2.497,26.874 c 0,-0.188 0.063,-0.313 0.188,-0.438 L 8.623,20.498 6.06,17.935 c -0.25,-0.188 -0.375,-0.5 -0.375,-0.813 0,-0.313 0.125,-0.563 0.375,-0.813 0.188,-0.188 0.5,-0.313 0.813,-0.313 h 8 c 0.313,0 0.563,0.125 0.813,0.313 0.188,0.25 0.313,0.5 0.313,0.813 z m 13.5,-12 c 0,0.188 -0.063,0.313 -0.188,0.438 l -5.938,5.938 2.563,2.563 c 0.25,0.188 0.375,0.5 0.375,0.813 0,0.313 -0.125,0.563 -0.375,0.813 -0.188,0.188 -0.5,0.313 -0.813,0.313 h -8 c -0.313,0 -0.563,-0.125 -0.813,-0.313 -0.188,-0.25 -0.313,-0.5 -0.313,-0.813 v -8 c 0,-0.313 0.125,-0.625 0.313,-0.813 0.25,-0.25 0.5,-0.375 0.813,-0.375 0.313,0 0.625,0.125 0.813,0.375 l 2.563,2.563 5.938,-5.938 C 26.564,2.563 26.689,2.5 26.877,2.5 c 0.125,0 0.25,0.063 0.375,0.188 l 2.063,2.063 c 0.125,0.125 0.188,0.25 0.188,0.375 z"
     id="path4"
     inkscape:connector-curvature="0" />
</svg>
