<?xml version="1.0" encoding="UTF-8" standalone="no"?>
<!-- Generated by IcoMoon.io -->

<svg
   xmlns:dc="http://purl.org/dc/elements/1.1/"
   xmlns:cc="http://creativecommons.org/ns#"
   xmlns:rdf="http://www.w3.org/1999/02/22-rdf-syntax-ns#"
   xmlns:svg="http://www.w3.org/2000/svg"
   xmlns="http://www.w3.org/2000/svg"
   xmlns:sodipodi="http://sodipodi.sourceforge.net/DTD/sodipodi-0.dtd"
   xmlns:inkscape="http://www.inkscape.org/namespaces/inkscape"
   version="1.1"
   width="32"
   height="32"
   viewBox="0 0 32 32"
   id="svg2"
   inkscape:version="0.48.0 r9654"
   sodipodi:docname="desktop-checked.svg">
  <metadata
     id="metadata12">
    <rdf:RDF>
      <cc:Work
         rdf:about="">
        <dc:format>image/svg+xml</dc:format>
        <dc:type
           rdf:resource="http://purl.org/dc/dcmitype/StillImage" />
      </cc:Work>
    </rdf:RDF>
  </metadata>
  <defs
     id="defs10" />
  <sodipodi:namedview
     pagecolor="#ffffff"
     bordercolor="#666666"
     borderopacity="1"
     objecttolerance="10"
     gridtolerance="10"
     guidetolerance="10"
     inkscape:pageopacity="0"
     inkscape:pageshadow="2"
     inkscape:window-width="1920"
     inkscape:window-height="1017"
     id="namedview8"
     showgrid="false"
     inkscape:zoom="8.15625"
     inkscape:cx="1.348659"
     inkscape:cy="16"
     inkscape:window-x="1912"
     inkscape:window-y="-8"
     inkscape:window-maximized="1"
     inkscape:current-layer="svg2" />
  <title
     id="title4">desktop-checked</title>
  <path
     d="M 6,5 C 4.312,5 3,6.313 3,8 v 13 c 0,1.688 1.313,3 3,3 h 5 v 3 h 10 v -3 h 5 c 1.688,0 3,-1.313 3,-3 V 8 C 29,6.312 27.687,5 26,5 z M 5,7 H 27 V 22 H 5 z m 17,4.188 c 0,0.188 -0.063,0.375 -0.188,0.563 l -6.688,6.625 c -0.188,0.188 -0.313,0.25 -0.563,0.25 -0.188,0 -0.375,-0.063 -0.5,-0.25 L 10.186,14.563 C 10.061,14.375 9.998,14.188 9.998,14 c 0,-0.188 0.063,-0.375 0.188,-0.5 l 1.063,-1.063 c 0.188,-0.125 0.313,-0.25 0.563,-0.25 0.188,0 0.375,0.125 0.5,0.25 l 2.25,2.25 5.125,-5.063 c 0.125,-0.188 0.313,-0.25 0.5,-0.25 0.25,0 0.375,0.063 0.563,0.25 l 1.063,1.063 c 0.125,0.125 0.188,0.313 0.188,0.5 z"
     id="path6"
     inkscape:connector-curvature="0" />
</svg>
