<?xml version="1.0" encoding="UTF-8" standalone="no"?>
<!-- Generated by IcoMoon.io -->

<svg
   xmlns:dc="http://purl.org/dc/elements/1.1/"
   xmlns:cc="http://creativecommons.org/ns#"
   xmlns:rdf="http://www.w3.org/1999/02/22-rdf-syntax-ns#"
   xmlns:svg="http://www.w3.org/2000/svg"
   xmlns="http://www.w3.org/2000/svg"
   xmlns:sodipodi="http://sodipodi.sourceforge.net/DTD/sodipodi-0.dtd"
   xmlns:inkscape="http://www.inkscape.org/namespaces/inkscape"
   version="1.1"
   width="32"
   height="32"
   viewBox="0 0 32 32"
   id="svg2"
   inkscape:version="0.48.0 r9654"
   sodipodi:docname="devices-checked.svg">
  <metadata
     id="metadata12">
    <rdf:RDF>
      <cc:Work
         rdf:about="">
        <dc:format>image/svg+xml</dc:format>
        <dc:type
           rdf:resource="http://purl.org/dc/dcmitype/StillImage" />
      </cc:Work>
    </rdf:RDF>
  </metadata>
  <defs
     id="defs10" />
  <sodipodi:namedview
     pagecolor="#ffffff"
     bordercolor="#666666"
     borderopacity="1"
     objecttolerance="10"
     gridtolerance="10"
     guidetolerance="10"
     inkscape:pageopacity="0"
     inkscape:pageshadow="2"
     inkscape:window-width="1920"
     inkscape:window-height="1017"
     id="namedview8"
     showgrid="false"
     inkscape:zoom="8.15625"
     inkscape:cx="1.348659"
     inkscape:cy="16"
     inkscape:window-x="1912"
     inkscape:window-y="-8"
     inkscape:window-maximized="1"
     inkscape:current-layer="svg2" />
  <title
     id="title4">devices-checked</title>
  <path
     d="m 5.9995,2.9995 c -1.688,0 -3,1.313 -3,3 v 20 c 0,1.688 1.313,3 3,3 h 10 v -5 h -10 v -18 h 15 v 1.688 c 0.375,-0.188 0.75,-0.313 1.25,-0.313 0.625,0 1.313,0.313 1.688,0.625 h 0.063 v -2 c 0,-1.688 -1.313,-3 -3,-3 z m 18.938,6 0.25,0.25 c 0,0 0,0 0,0.063 0.438,0.438 0.813,1.375 0.813,1.938 0,0.188 -0.063,0.438 -0.125,0.75 h 1.125 v 13 h -8 v -5.625 l -2,2 v 5.625 c 0,1.125 0.875,2 2,2 h 8 c 1.125,0 2,-0.875 2,-2 v -16 c 0,-1.125 -0.875,-2 -2,-2 z m -11.438,16 c 0.813,0 1.5,0.688 1.5,1.5 0,0.812 -0.688,1.5 -1.5,1.5 -0.813,0 -1.5,-0.688 -1.5,-1.5 0,-0.812 0.688,-1.5 1.5,-1.5 z m 9.5,1 c 0.563,0 1,0.438 1,1 0,0.562 -0.438,1 -1,1 -0.563,0 -1,-0.438 -1,-1 0,-0.562 0.438,-1 1,-1 z m -1,-12.812 c 0,0.188 -0.063,0.375 -0.188,0.563 l -6.688,6.625 c -0.188,0.188 -0.313,0.25 -0.563,0.25 -0.188,0 -0.375,-0.063 -0.5,-0.25 l -3.875,-3.813 c -0.125,-0.188 -0.188,-0.375 -0.188,-0.563 0,-0.188 0.063,-0.375 0.188,-0.5 l 1.063,-1.063 c 0.188,-0.125 0.313,-0.25 0.563,-0.25 0.188,0 0.375,0.125 0.5,0.25 l 2.25,2.25 5.125,-5.063 c 0.125,-0.188 0.313,-0.25 0.5,-0.25 0.25,0 0.375,0.063 0.563,0.25 l 1.063,1.063 c 0.125,0.125 0.188,0.313 0.188,0.5 z"
     id="path6"
     inkscape:connector-curvature="0" />
</svg>
