<?xml version="1.0" encoding="UTF-8" standalone="no"?>
<!-- Generated by IcoMoon.io -->

<svg
   xmlns:dc="http://purl.org/dc/elements/1.1/"
   xmlns:cc="http://creativecommons.org/ns#"
   xmlns:rdf="http://www.w3.org/1999/02/22-rdf-syntax-ns#"
   xmlns:svg="http://www.w3.org/2000/svg"
   xmlns="http://www.w3.org/2000/svg"
   xmlns:sodipodi="http://sodipodi.sourceforge.net/DTD/sodipodi-0.dtd"
   xmlns:inkscape="http://www.inkscape.org/namespaces/inkscape"
   version="1.1"
   width="32"
   height="32"
   viewBox="0 0 32 32"
   id="svg6"
   sodipodi:docname="devices.svg"
   inkscape:version="0.92.2 (5c3e80d, 2017-08-06)">
  <metadata
     id="metadata12">
    <rdf:RDF>
      <cc:Work
         rdf:about="">
        <dc:format>image/svg+xml</dc:format>
        <dc:type
           rdf:resource="http://purl.org/dc/dcmitype/StillImage" />
      </cc:Work>
    </rdf:RDF>
  </metadata>
  <defs
     id="defs10" />
  <sodipodi:namedview
     pagecolor="#ffffff"
     bordercolor="#666666"
     borderopacity="1"
     objecttolerance="10"
     gridtolerance="10"
     guidetolerance="10"
     inkscape:pageopacity="0"
     inkscape:pageshadow="2"
     inkscape:window-width="686"
     inkscape:window-height="480"
     id="namedview8"
     showgrid="false"
     inkscape:zoom="7.375"
     inkscape:cx="16"
     inkscape:cy="16"
     inkscape:window-x="0"
     inkscape:window-y="0"
     inkscape:window-maximized="0"
     inkscape:current-layer="svg6" />
  <title
     id="title2">devices</title>
  <path
     d="m 19,9 c -1.125,0 -2,0.875 -2,2 v 16 c 0,1.125 0.875,2 2,2 h 8 c 1.125,0 2,-0.875 2,-2 V 11 C 29,9.875 28.125,9 27,9 Z m 2.5,1 h 3 c 0.25,0 0.5,0.25 0.5,0.5 0,0.25 -0.25,0.5 -0.5,0.5 h -3 C 21.25,11 21,10.75 21,10.5 21,10.25 21.25,10 21.5,10 Z M 19,12 h 8 v 13 h -8 z m 4,14 c 0.563,0 1,0.438 1,1 0,0.562 -0.438,1 -1,1 -0.563,0 -1,-0.438 -1,-1 0,-0.562 0.438,-1 1,-1 z M 6,3 C 4.312,3 3,4.313 3,6 v 20 c 0,1.688 1.313,3 3,3 H 16 V 24 H 6 V 6 h 15 v 2 h 3 V 6 C 24,4.312 22.687,3 21,3 Z m 7.5,22 C 14.313,25 15,25.688 15,26.5 15,27.312 14.312,28 13.5,28 12.687,28 12,27.312 12,26.5 12,25.688 12.688,25 13.5,25 Z"
     id="path4"
     inkscape:connector-curvature="0" />
</svg>
