<?xml version="1.0" encoding="UTF-8" standalone="no"?>
<!-- Generated by IcoMoon.io -->

<svg
   xmlns:dc="http://purl.org/dc/elements/1.1/"
   xmlns:cc="http://creativecommons.org/ns#"
   xmlns:rdf="http://www.w3.org/1999/02/22-rdf-syntax-ns#"
   xmlns:svg="http://www.w3.org/2000/svg"
   xmlns="http://www.w3.org/2000/svg"
   xmlns:sodipodi="http://sodipodi.sourceforge.net/DTD/sodipodi-0.dtd"
   xmlns:inkscape="http://www.inkscape.org/namespaces/inkscape"
   version="1.1"
   width="32"
   height="32"
   viewBox="0 0 32 32"
   id="svg6"
   sodipodi:docname="exclamation-triangle.svg"
   inkscape:version="0.92.2 (5c3e80d, 2017-08-06)">
  <metadata
     id="metadata12">
    <rdf:RDF>
      <cc:Work
         rdf:about="">
        <dc:format>image/svg+xml</dc:format>
        <dc:type
           rdf:resource="http://purl.org/dc/dcmitype/StillImage" />
      </cc:Work>
    </rdf:RDF>
  </metadata>
  <defs
     id="defs10" />
  <sodipodi:namedview
     pagecolor="#ffffff"
     bordercolor="#666666"
     borderopacity="1"
     objecttolerance="10"
     gridtolerance="10"
     guidetolerance="10"
     inkscape:pageopacity="0"
     inkscape:pageshadow="2"
     inkscape:window-width="686"
     inkscape:window-height="480"
     id="namedview8"
     showgrid="false"
     inkscape:zoom="7.375"
     inkscape:cx="16"
     inkscape:cy="16"
     inkscape:window-x="0"
     inkscape:window-y="0"
     inkscape:window-maximized="0"
     inkscape:current-layer="svg6" />
  <title
     id="title2">exclamation-triangle</title>
  <path
     d="m 18.3135,25.72 v -3.375 c 0,-0.188 -0.063,-0.313 -0.188,-0.438 -0.125,-0.125 -0.25,-0.188 -0.438,-0.188 h -3.375 c -0.188,0 -0.313,0.063 -0.438,0.188 -0.125,0.125 -0.188,0.25 -0.188,0.438 v 3.375 c 0,0.188 0.063,0.313 0.188,0.438 0.125,0.063 0.25,0.125 0.438,0.125 h 3.375 c 0.188,0 0.313,-0.063 0.438,-0.125 0.125,-0.125 0.188,-0.25 0.188,-0.438 z m -0.063,-6.688 0.313,-8.188 c 0,-0.125 -0.063,-0.25 -0.188,-0.375 -0.125,-0.125 -0.25,-0.188 -0.438,-0.188 h -3.875 c -0.188,0 -0.313,0.063 -0.438,0.188 -0.125,0.125 -0.188,0.25 -0.188,0.375 l 0.313,8.188 c 0,0.125 0.063,0.188 0.188,0.313 0.063,0.063 0.25,0.125 0.375,0.125 h 3.313 c 0.188,0 0.313,-0.063 0.438,-0.125 0.125,-0.125 0.188,-0.188 0.188,-0.313 z m -0.25,-16.688 13.688,25.125 c 0.438,0.75 0.438,1.5 0,2.25 -0.188,0.375 -0.5,0.625 -0.813,0.875 -0.375,0.188 -0.75,0.25 -1.188,0.25 H 2.3125 c -0.438,0 -0.813,-0.063 -1.188,-0.25 -0.313,-0.25 -0.625,-0.5 -0.813,-0.875 -0.438,-0.75 -0.438,-1.5 0,-2.25 L 13.9995,2.344 c 0.188,-0.375 0.5,-0.625 0.813,-0.875 0.375,-0.188 0.75,-0.313 1.188,-0.313 0.438,0 0.813,0.125 1.188,0.313 0.313,0.25 0.625,0.5 0.813,0.875 z"
     id="path4"
     inkscape:connector-curvature="0" />
</svg>
