<?xml version="1.0" encoding="UTF-8" standalone="no"?>
<!-- Generated by IcoMoon.io -->

<svg
   xmlns:dc="http://purl.org/dc/elements/1.1/"
   xmlns:cc="http://creativecommons.org/ns#"
   xmlns:rdf="http://www.w3.org/1999/02/22-rdf-syntax-ns#"
   xmlns:svg="http://www.w3.org/2000/svg"
   xmlns="http://www.w3.org/2000/svg"
   xmlns:sodipodi="http://sodipodi.sourceforge.net/DTD/sodipodi-0.dtd"
   xmlns:inkscape="http://www.inkscape.org/namespaces/inkscape"
   version="1.1"
   width="32"
   height="32"
   viewBox="0 0 32 32"
   id="svg2"
   inkscape:version="0.48.0 r9654"
   sodipodi:docname="eye.svg">
  <metadata
     id="metadata12">
    <rdf:RDF>
      <cc:Work
         rdf:about="">
        <dc:format>image/svg+xml</dc:format>
        <dc:type
           rdf:resource="http://purl.org/dc/dcmitype/StillImage" />
      </cc:Work>
    </rdf:RDF>
  </metadata>
  <defs
     id="defs10" />
  <sodipodi:namedview
     pagecolor="#ffffff"
     bordercolor="#666666"
     borderopacity="1"
     objecttolerance="10"
     gridtolerance="10"
     guidetolerance="10"
     inkscape:pageopacity="0"
     inkscape:pageshadow="2"
     inkscape:window-width="1920"
     inkscape:window-height="1017"
     id="namedview8"
     showgrid="false"
     inkscape:zoom="8.15625"
     inkscape:cx="1.348659"
     inkscape:cy="16"
     inkscape:window-x="1912"
     inkscape:window-y="-8"
     inkscape:window-maximized="1"
     inkscape:current-layer="svg2" />
  <title
     id="title4">eye</title>
  <path
     d="m 29.689,15.969 c -1.813,-2.813 -4.063,-4.875 -6.75,-6.313 0.688,1.25 1.063,2.625 1.063,4.063 0,2.188 -0.813,4.063 -2.375,5.625 -1.562,1.562 -3.438,2.375 -5.625,2.375 -2.188,0 -4.063,-0.813 -5.625,-2.375 -1.562,-1.562 -2.375,-3.438 -2.375,-5.625 0,-1.438 0.375,-2.813 1.063,-4.063 -2.688,1.438 -4.938,3.5 -6.75,6.313 1.563,2.438 3.563,4.375 5.938,5.875 2.375,1.438 4.938,2.125 7.75,2.125 2.812,0 5.375,-0.688 7.75,-2.125 2.375,-1.5 4.375,-3.438 5.938,-5.875 z M 16.876,9.157 c 0,-0.25 -0.125,-0.438 -0.25,-0.625 -0.188,-0.188 -0.375,-0.25 -0.625,-0.25 -1.5,0 -2.75,0.5 -3.813,1.563 -1.063,1.063 -1.625,2.375 -1.625,3.875 0,0.25 0.063,0.438 0.25,0.563 0.188,0.188 0.375,0.25 0.625,0.25 0.25,0 0.438,-0.063 0.625,-0.25 0.125,-0.125 0.25,-0.313 0.25,-0.563 0,-1.063 0.313,-1.938 1.063,-2.625 0.75,-0.75 1.625,-1.125 2.625,-1.125 0.25,0 0.438,-0.063 0.625,-0.25 0.125,-0.125 0.25,-0.375 0.25,-0.563 z m 15.125,6.812 c 0,0.438 -0.125,0.813 -0.375,1.25 -1.625,2.75 -3.875,4.938 -6.688,6.563 -2.813,1.688 -5.813,2.5 -8.938,2.5 -3.125,0 -6.125,-0.813 -8.938,-2.5 -2.813,-1.625 -5.063,-3.813 -6.688,-6.563 -0.25,-0.438 -0.375,-0.813 -0.375,-1.25 0,-0.375 0.125,-0.813 0.375,-1.188 C 1.999,12.031 4.249,9.843 7.062,8.156 9.875,6.531 12.875,5.718 16,5.718 c 3.125,0 6.125,0.813 8.938,2.438 2.813,1.688 5.063,3.875 6.688,6.625 0.25,0.375 0.375,0.813 0.375,1.188 z"
     id="path6"
     inkscape:connector-curvature="0" />
</svg>
