<?xml version="1.0" encoding="UTF-8" standalone="no"?>
<!-- Generated by IcoMoon.io -->

<svg
   xmlns:dc="http://purl.org/dc/elements/1.1/"
   xmlns:cc="http://creativecommons.org/ns#"
   xmlns:rdf="http://www.w3.org/1999/02/22-rdf-syntax-ns#"
   xmlns:svg="http://www.w3.org/2000/svg"
   xmlns="http://www.w3.org/2000/svg"
   xmlns:sodipodi="http://sodipodi.sourceforge.net/DTD/sodipodi-0.dtd"
   xmlns:inkscape="http://www.inkscape.org/namespaces/inkscape"
   version="1.1"
   width="32"
   height="32"
   viewBox="0 0 32 32"
   id="svg6"
   sodipodi:docname="facebook-square.svg"
   inkscape:version="0.92.2 (5c3e80d, 2017-08-06)">
  <metadata
     id="metadata12">
    <rdf:RDF>
      <cc:Work
         rdf:about="">
        <dc:format>image/svg+xml</dc:format>
        <dc:type
           rdf:resource="http://purl.org/dc/dcmitype/StillImage" />
      </cc:Work>
    </rdf:RDF>
  </metadata>
  <defs
     id="defs10" />
  <sodipodi:namedview
     pagecolor="#ffffff"
     bordercolor="#666666"
     borderopacity="1"
     objecttolerance="10"
     gridtolerance="10"
     guidetolerance="10"
     inkscape:pageopacity="0"
     inkscape:pageshadow="2"
     inkscape:window-width="686"
     inkscape:window-height="480"
     id="namedview8"
     showgrid="false"
     inkscape:zoom="7.375"
     inkscape:cx="16"
     inkscape:cy="16"
     inkscape:window-x="0"
     inkscape:window-y="0"
     inkscape:window-maximized="0"
     inkscape:current-layer="svg6" />
  <title
     id="title2">facebook-square</title>
  <path
     d="m 24.562,2.312 c 1.438,0 2.625,0.5 3.625,1.5 1,1 1.5,2.188 1.5,3.625 v 17.125 c 0,1.438 -0.5,2.625 -1.5,3.625 -1,1 -2.188,1.5 -3.625,1.5 H 21.187 V 19.062 h 3.563 l 0.563,-4.125 h -4.125 v -2.625 c 0,-0.688 0.188,-1.188 0.438,-1.5 0.313,-0.313 0.813,-0.5 1.625,-0.5 h 2.188 v -3.75 c -0.75,-0.063 -1.813,-0.125 -3.188,-0.125 -1.625,0 -2.875,0.438 -3.875,1.438 -0.938,0.938 -1.438,2.25 -1.438,4 v 3.063 h -3.563 v 4.125 h 3.563 v 10.625 h -9.5 c -1.438,0 -2.625,-0.5 -3.625,-1.5 -1,-1 -1.5,-2.188 -1.5,-3.625 V 7.438 c 0,-1.438 0.5,-2.625 1.5,-3.625 1,-1 2.188,-1.5 3.625,-1.5 z"
     id="path4"
     inkscape:connector-curvature="0" />
</svg>
