<?xml version="1.0" encoding="UTF-8" standalone="no"?>
<!-- Generated by IcoMoon.io -->

<svg
   xmlns:dc="http://purl.org/dc/elements/1.1/"
   xmlns:cc="http://creativecommons.org/ns#"
   xmlns:rdf="http://www.w3.org/1999/02/22-rdf-syntax-ns#"
   xmlns:svg="http://www.w3.org/2000/svg"
   xmlns="http://www.w3.org/2000/svg"
   xmlns:sodipodi="http://sodipodi.sourceforge.net/DTD/sodipodi-0.dtd"
   xmlns:inkscape="http://www.inkscape.org/namespaces/inkscape"
   version="1.1"
   width="32"
   height="32"
   viewBox="0 0 32 32"
   id="svg2"
   inkscape:version="0.48.0 r9654"
   sodipodi:docname="fwd30.svg">
  <metadata
     id="metadata12">
    <rdf:RDF>
      <cc:Work
         rdf:about="">
        <dc:format>image/svg+xml</dc:format>
        <dc:type
           rdf:resource="http://purl.org/dc/dcmitype/StillImage" />
      </cc:Work>
    </rdf:RDF>
  </metadata>
  <defs
     id="defs10" />
  <sodipodi:namedview
     pagecolor="#ffffff"
     bordercolor="#666666"
     borderopacity="1"
     objecttolerance="10"
     gridtolerance="10"
     guidetolerance="10"
     inkscape:pageopacity="0"
     inkscape:pageshadow="2"
     inkscape:window-width="1920"
     inkscape:window-height="1017"
     id="namedview8"
     showgrid="false"
     inkscape:zoom="8.15625"
     inkscape:cx="1.348659"
     inkscape:cy="16"
     inkscape:window-x="1912"
     inkscape:window-y="-8"
     inkscape:window-maximized="1"
     inkscape:current-layer="svg2" />
  <title
     id="title4">fwd30</title>
  <path
     d="m 11.0935,24.8125 c 0.313,0.313 0.75,0.438 1.25,0.438 0.563,0 0.938,-0.125 1.25,-0.375 0.313,-0.313 0.5,-0.688 0.5,-1.25 0,-0.5 -0.188,-0.938 -0.5,-1.25 -0.375,-0.313 -0.75,-0.438 -1.25,-0.438 h -0.938 v -1.563 h 0.938 c 0.5,0 0.938,-0.188 1.25,-0.438 0.313,-0.313 0.5,-0.75 0.5,-1.25 0,-0.5 -0.188,-0.875 -0.5,-1.188 -0.313,-0.375 -0.75,-0.5 -1.25,-0.5 -0.563,0 -1,0.125 -1.313,0.438 -0.313,0.25 -0.5,0.688 -0.5,1.25 v 0.063 h -1.625 v -0.063 c 0,-0.625 0.125,-1.125 0.313,-1.563 0.375,-0.813 1.063,-1.313 1.938,-1.625 0.375,-0.063 0.75,-0.125 1.188,-0.125 0.813,0 1.563,0.25 2.25,0.75 0.313,0.25 0.625,0.563 0.813,1 0.25,0.5 0.375,1 0.375,1.563 0,0.563 -0.125,1.063 -0.375,1.5 -0.25,0.375 -0.563,0.75 -1,0.938 0.438,0.188 0.75,0.563 1,1 0.25,0.5 0.375,1 0.375,1.5 0,1.125 -0.375,1.938 -1,2.438 -0.688,0.563 -1.438,0.813 -2.313,0.813 -0.875,0 -1.688,-0.188 -2.375,-0.688 -0.375,-0.188 -0.625,-0.563 -0.875,-1 -0.188,-0.5 -0.313,-1 -0.313,-1.625 v -0.063 h 1.625 v 0.063 c 0.063,0.563 0.188,1 0.563,1.25 z m 6.437,-1.375 v -4.625 c 0,-0.688 0.125,-1.25 0.375,-1.688 0.188,-0.5 0.5,-0.813 0.813,-1.063 0.688,-0.438 1.438,-0.688 2.313,-0.688 0.813,0 1.563,0.25 2.188,0.688 0.375,0.25 0.688,0.563 0.875,1.063 0.25,0.438 0.313,1 0.313,1.688 v 4.625 c 0,1.75 -0.75,2.813 -2.25,3.313 -0.375,0.063 -0.75,0.125 -1.188,0.125 -0.813,0 -1.563,-0.188 -2.25,-0.688 -0.313,-0.25 -0.625,-0.563 -0.813,-1.063 -0.25,-0.438 -0.375,-1 -0.375,-1.688 z m 5.25,0 v -4.625 c 0,-0.625 -0.188,-1.063 -0.5,-1.375 -0.312,-0.312 -0.75,-0.438 -1.25,-0.438 -0.563,0 -1,0.125 -1.313,0.438 -0.313,0.313 -0.5,0.75 -0.5,1.375 v 4.625 c 0,0.625 0.188,1.063 0.5,1.375 0.312,0.312 0.75,0.438 1.25,0.438 0.563,0 1,-0.125 1.313,-0.438 0.313,-0.313 0.5,-0.75 0.5,-1.375 z m -6.125,-18.313 c -1.875,0 -3.688,0.375 -5.438,1.125 -1.75,0.75 -3.188,1.75 -4.438,3 -1.25,1.25 -2.25,2.688 -3,4.438 -0.75,1.75 -1.125,3.563 -1.125,5.438 h 2 c 0,-1.625 0.313,-3.188 1,-4.625 0.625,-1.5 1.438,-2.75 2.563,-3.813 1.063,-1.125 2.313,-2 3.813,-2.625 1.438,-0.625 3,-0.938 4.625,-0.938 1.625,0 3.188,0.313 4.688,0.938 1.438,0.625 2.75,1.5 3.813,2.625 l -1.625,1.625 c -0.25,0.188 -0.25,0.438 -0.125,0.75 0.063,0.25 0.313,0.375 0.625,0.375 h 4.688 c 0.125,0 0.313,-0.063 0.438,-0.188 0.125,-0.188 0.188,-0.313 0.188,-0.5 v -4.688 c 0,-0.313 -0.125,-0.5 -0.375,-0.625 -0.313,-0.125 -0.563,-0.063 -0.75,0.188 l -1.625,1.625 c -1.25,-1.25 -2.75,-2.25 -4.5,-3 -1.75,-0.75 -3.563,-1.125 -5.438,-1.125 z"
     id="path6"
     inkscape:connector-curvature="0" />
</svg>
