<?xml version="1.0" encoding="UTF-8" standalone="no"?>
<!-- Generated by IcoMoon.io -->

<svg
   xmlns:dc="http://purl.org/dc/elements/1.1/"
   xmlns:cc="http://creativecommons.org/ns#"
   xmlns:rdf="http://www.w3.org/1999/02/22-rdf-syntax-ns#"
   xmlns:svg="http://www.w3.org/2000/svg"
   xmlns="http://www.w3.org/2000/svg"
   xmlns:sodipodi="http://sodipodi.sourceforge.net/DTD/sodipodi-0.dtd"
   xmlns:inkscape="http://www.inkscape.org/namespaces/inkscape"
   version="1.1"
   width="32"
   height="32"
   viewBox="0 0 32 32"
   id="svg2"
   inkscape:version="0.48.0 r9654"
   sodipodi:docname="home.svg">
  <metadata
     id="metadata12">
    <rdf:RDF>
      <cc:Work
         rdf:about="">
        <dc:format>image/svg+xml</dc:format>
        <dc:type
           rdf:resource="http://purl.org/dc/dcmitype/StillImage" />
      </cc:Work>
    </rdf:RDF>
  </metadata>
  <defs
     id="defs10" />
  <sodipodi:namedview
     pagecolor="#ffffff"
     bordercolor="#666666"
     borderopacity="1"
     objecttolerance="10"
     gridtolerance="10"
     guidetolerance="10"
     inkscape:pageopacity="0"
     inkscape:pageshadow="2"
     inkscape:window-width="1920"
     inkscape:window-height="1017"
     id="namedview8"
     showgrid="false"
     inkscape:zoom="8.15625"
     inkscape:cx="1.348659"
     inkscape:cy="16"
     inkscape:window-x="-8"
     inkscape:window-y="-8"
     inkscape:window-maximized="1"
     inkscape:current-layer="svg2" />
  <title
     id="title4">home</title>
  <path
     d="m 26.313,17.7195 v 8.625 c 0,0.313 -0.125,0.563 -0.375,0.75 -0.188,0.25 -0.5,0.375 -0.813,0.375 h -6.813 v -6.875 h -4.625 v 6.875 H 6.874 c -0.313,0 -0.625,-0.125 -0.813,-0.375 -0.25,-0.188 -0.375,-0.438 -0.375,-0.75 v -8.625 c 0,0 0,0 0,0 0,-0.063 0,-0.063 0,-0.063 l 10.25,-8.5 10.313,8.5 c 0,0 0,0.063 0,0.063 z m 3.937,-1.188 -1.063,1.313 c -0.125,0.125 -0.25,0.188 -0.375,0.188 h -0.063 c -0.188,0 -0.313,-0.063 -0.375,-0.125 L 15.999,7.5945 3.624,17.9075 c -0.125,0.125 -0.25,0.125 -0.438,0.125 -0.125,0 -0.25,-0.063 -0.375,-0.188 l -1.063,-1.313 c -0.125,-0.125 -0.125,-0.25 -0.125,-0.438 0,-0.188 0.063,-0.313 0.188,-0.375 L 14.624,5.0305 c 0.375,-0.313 0.875,-0.5 1.375,-0.5 0.5,0 1,0.188 1.375,0.5 l 4.313,3.625 v -3.5 c 0,-0.125 0.063,-0.313 0.188,-0.375 0.125,-0.125 0.25,-0.188 0.438,-0.188 h 3.375 c 0.188,0 0.313,0.063 0.438,0.188 0.125,0.063 0.188,0.25 0.188,0.375 v 7.313 l 3.875,3.25 c 0.125,0.063 0.188,0.188 0.188,0.375 0,0.187 0,0.313 -0.125,0.438 z"
     id="path6"
     inkscape:connector-curvature="0" />
</svg>
