<?xml version="1.0" encoding="UTF-8" standalone="no"?>
<!-- Generated by IcoMoon.io -->

<svg
   xmlns:dc="http://purl.org/dc/elements/1.1/"
   xmlns:cc="http://creativecommons.org/ns#"
   xmlns:rdf="http://www.w3.org/1999/02/22-rdf-syntax-ns#"
   xmlns:svg="http://www.w3.org/2000/svg"
   xmlns="http://www.w3.org/2000/svg"
   xmlns:sodipodi="http://sodipodi.sourceforge.net/DTD/sodipodi-0.dtd"
   xmlns:inkscape="http://www.inkscape.org/namespaces/inkscape"
   version="1.1"
   width="32"
   height="32"
   viewBox="0 0 32 32"
   id="svg2"
   inkscape:version="0.48.0 r9654"
   sodipodi:docname="laptop.svg">
  <metadata
     id="metadata12">
    <rdf:RDF>
      <cc:Work
         rdf:about="">
        <dc:format>image/svg+xml</dc:format>
        <dc:type
           rdf:resource="http://purl.org/dc/dcmitype/StillImage" />
      </cc:Work>
    </rdf:RDF>
  </metadata>
  <defs
     id="defs10" />
  <sodipodi:namedview
     pagecolor="#ffffff"
     bordercolor="#666666"
     borderopacity="1"
     objecttolerance="10"
     gridtolerance="10"
     guidetolerance="10"
     inkscape:pageopacity="0"
     inkscape:pageshadow="2"
     inkscape:window-width="1920"
     inkscape:window-height="1017"
     id="namedview8"
     showgrid="false"
     inkscape:zoom="8.15625"
     inkscape:cx="1.348659"
     inkscape:cy="16"
     inkscape:window-x="1912"
     inkscape:window-y="-8"
     inkscape:window-maximized="1"
     inkscape:current-layer="svg2" />
  <title
     id="title4">laptop</title>
  <path
     d="m 6.938,22.4375 c -0.75,0 -1.375,-0.313 -1.938,-0.813 -0.5,-0.563 -0.75,-1.125 -0.75,-1.875 v -11.75 c 0,-0.75 0.25,-1.313 0.75,-1.875 0.563,-0.5 1.188,-0.813 1.938,-0.813 h 18.125 c 0.75,0 1.375,0.313 1.938,0.813 0.5,0.563 0.75,1.125 0.75,1.875 v 11.75 c 0,0.75 -0.25,1.313 -0.75,1.875 -0.563,0.5 -1.188,0.813 -1.938,0.813 z M 6.375,7.9995 v 11.75 c 0,0.125 0.063,0.25 0.188,0.313 0.125,0.125 0.188,0.188 0.375,0.188 h 18.125 c 0.188,0 0.313,-0.063 0.375,-0.188 0.125,-0.063 0.188,-0.188 0.188,-0.313 v -11.75 c 0,-0.188 -0.063,-0.313 -0.188,-0.438 -0.063,0 -0.188,-0.063 -0.375,-0.063 H 6.938 c -0.188,0 -0.25,0.063 -0.375,0.063 -0.125,0.125 -0.188,0.25 -0.188,0.438 z m 23,15.5 H 32 v 1.563 c 0,0.438 -0.25,0.875 -0.75,1.188 -0.563,0.25 -1.188,0.438 -1.875,0.438 H 2.625 c -0.688,0 -1.313,-0.188 -1.875,-0.438 C 0.25,25.9375 0,25.5005 0,25.0625 v -1.563 z m -12.062,1.563 c 0.188,0 0.25,-0.063 0.25,-0.25 0,-0.187 -0.063,-0.313 -0.25,-0.313 h -2.625 c -0.188,0 -0.25,0.125 -0.25,0.313 0,0.188 0.063,0.25 0.25,0.25 z"
     id="path6"
     inkscape:connector-curvature="0" />
</svg>
