<?xml version="1.0" encoding="UTF-8" standalone="no"?>
<!-- Generated by IcoMoon.io -->

<svg
   xmlns:dc="http://purl.org/dc/elements/1.1/"
   xmlns:cc="http://creativecommons.org/ns#"
   xmlns:rdf="http://www.w3.org/1999/02/22-rdf-syntax-ns#"
   xmlns:svg="http://www.w3.org/2000/svg"
   xmlns="http://www.w3.org/2000/svg"
   xmlns:sodipodi="http://sodipodi.sourceforge.net/DTD/sodipodi-0.dtd"
   xmlns:inkscape="http://www.inkscape.org/namespaces/inkscape"
   version="1.1"
   width="32"
   height="32"
   viewBox="0 0 32 32"
   id="svg2"
   inkscape:version="0.48.0 r9654"
   sodipodi:docname="list-ul.svg">
  <metadata
     id="metadata12">
    <rdf:RDF>
      <cc:Work
         rdf:about="">
        <dc:format>image/svg+xml</dc:format>
        <dc:type
           rdf:resource="http://purl.org/dc/dcmitype/StillImage" />
      </cc:Work>
    </rdf:RDF>
  </metadata>
  <defs
     id="defs10" />
  <sodipodi:namedview
     pagecolor="#ffffff"
     bordercolor="#666666"
     borderopacity="1"
     objecttolerance="10"
     gridtolerance="10"
     guidetolerance="10"
     inkscape:pageopacity="0"
     inkscape:pageshadow="2"
     inkscape:window-width="1920"
     inkscape:window-height="1017"
     id="namedview8"
     showgrid="false"
     inkscape:zoom="8.15625"
     inkscape:cx="1.348659"
     inkscape:cy="16"
     inkscape:window-x="-8"
     inkscape:window-y="-8"
     inkscape:window-maximized="1"
     inkscape:current-layer="svg2" />
  <title
     id="title4">list-ul</title>
  <path
     d="m 6.8755,25.125 c 0,1 -0.375,1.75 -1,2.438 -0.688,0.688 -1.5,1 -2.438,1 -0.938,0 -1.75,-0.313 -2.438,-1 -0.688,-0.688 -1,-1.438 -1,-2.438 0,-0.938 0.313,-1.75 1,-2.438 0.688,-0.625 1.5,-1 2.438,-1 0.938,0 1.75,0.375 2.438,1 0.625,0.688 1,1.5 1,2.438 z m 0,-9.125 c 0,0.938 -0.375,1.75 -1,2.438 -0.688,0.688 -1.5,1 -2.438,1 -0.938,0 -1.75,-0.313 -2.438,-1 -0.688,-0.688 -1,-1.5 -1,-2.438 0,-0.938 0.313,-1.75 1,-2.438 0.688,-0.688 1.5,-1 2.438,-1 0.938,0 1.75,0.313 2.438,1 0.625,0.688 1,1.5 1,2.438 z m 25.125,7.438 v 3.438 c 0,0.125 -0.063,0.25 -0.188,0.375 -0.125,0.125 -0.25,0.188 -0.375,0.188 h -21.75 c -0.125,0 -0.25,-0.063 -0.375,-0.188 -0.125,-0.125 -0.188,-0.25 -0.188,-0.375 v -3.438 c 0,-0.188 0.063,-0.313 0.188,-0.438 0.125,-0.063 0.25,-0.125 0.375,-0.125 h 21.75 c 0.125,0 0.25,0.063 0.375,0.125 0.125,0.125 0.188,0.25 0.188,0.438 z M 6.8755,6.875 c 0,0.938 -0.375,1.75 -1,2.438 -0.688,0.625 -1.5,1 -2.438,1 -0.938,0 -1.75,-0.375 -2.438,-1 -0.688,-0.688 -1,-1.5 -1,-2.438 0,-1 0.313,-1.75 1,-2.438 0.687,-0.688 1.5,-1 2.438,-1 0.938,0 1.75,0.313 2.438,1 0.625,0.688 1,1.438 1,2.438 z m 25.125,7.438 v 3.375 c 0,0.188 -0.063,0.313 -0.188,0.438 -0.125,0.125 -0.25,0.188 -0.375,0.188 h -21.75 c -0.125,0 -0.25,-0.063 -0.375,-0.188 -0.125,-0.125 -0.188,-0.25 -0.188,-0.438 v -3.375 c 0,-0.188 0.063,-0.313 0.188,-0.438 0.125,-0.125 0.25,-0.188 0.375,-0.188 h 21.75 c 0.125,0 0.25,0.063 0.375,0.188 0.125,0.125 0.188,0.25 0.188,0.438 z m 0,-9.188 v 3.438 c 0,0.188 -0.063,0.313 -0.188,0.438 -0.125,0.063 -0.25,0.125 -0.375,0.125 h -21.75 c -0.125,0 -0.25,-0.063 -0.375,-0.125 C 9.1875,8.876 9.1245,8.751 9.1245,8.563 V 5.125 c 0,-0.125 0.063,-0.25 0.188,-0.375 0.125,-0.125 0.25,-0.188 0.375,-0.188 h 21.75 c 0.125,0 0.25,0.063 0.375,0.188 0.125,0.125 0.188,0.25 0.188,0.375 z"
     id="path6"
     inkscape:connector-curvature="0" />
</svg>
