<?xml version="1.0" encoding="UTF-8" standalone="no"?>
<!-- Generated by IcoMoon.io -->

<svg
   xmlns:dc="http://purl.org/dc/elements/1.1/"
   xmlns:cc="http://creativecommons.org/ns#"
   xmlns:rdf="http://www.w3.org/1999/02/22-rdf-syntax-ns#"
   xmlns:svg="http://www.w3.org/2000/svg"
   xmlns="http://www.w3.org/2000/svg"
   xmlns:sodipodi="http://sodipodi.sourceforge.net/DTD/sodipodi-0.dtd"
   xmlns:inkscape="http://www.inkscape.org/namespaces/inkscape"
   version="1.1"
   width="32"
   height="32"
   viewBox="0 0 32 32"
   id="svg2"
   inkscape:version="0.48.0 r9654"
   sodipodi:docname="play-circle.svg">
  <metadata
     id="metadata12">
    <rdf:RDF>
      <cc:Work
         rdf:about="">
        <dc:format>image/svg+xml</dc:format>
        <dc:type
           rdf:resource="http://purl.org/dc/dcmitype/StillImage" />
      </cc:Work>
    </rdf:RDF>
  </metadata>
  <defs
     id="defs10" />
  <sodipodi:namedview
     pagecolor="#ffffff"
     bordercolor="#666666"
     borderopacity="1"
     objecttolerance="10"
     gridtolerance="10"
     guidetolerance="10"
     inkscape:pageopacity="0"
     inkscape:pageshadow="2"
     inkscape:window-width="1920"
     inkscape:window-height="1017"
     id="namedview8"
     showgrid="false"
     inkscape:zoom="8.15625"
     inkscape:cx="1.348659"
     inkscape:cy="16"
     inkscape:window-x="-8"
     inkscape:window-y="-8"
     inkscape:window-maximized="1"
     inkscape:current-layer="svg2" />
  <title
     id="title4">play-circle</title>
  <path
     d="m 16,2.312 c 2.5,0 4.813,0.563 6.875,1.813 2.125,1.25 3.75,2.875 5,5 1.25,2.063 1.813,4.375 1.813,6.875 0,2.5 -0.563,4.813 -1.813,6.875 -1.25,2.125 -2.875,3.75 -5,5 -2.063,1.25 -4.375,1.813 -6.875,1.813 -2.5,0 -4.813,-0.563 -6.875,-1.813 C 7,26.625 5.375,25 4.125,22.875 2.875,20.812 2.312,18.5 2.312,16 2.312,13.5 2.875,11.187 4.125,9.125 5.375,7 7,5.375 9.125,4.125 11.188,2.875 13.5,2.312 16,2.312 z m 6.875,14.687 c 0.375,-0.25 0.563,-0.563 0.563,-1 0,-0.437 -0.188,-0.75 -0.563,-1 l -9.75,-5.688 c -0.375,-0.25 -0.75,-0.25 -1.125,0 -0.375,0.188 -0.563,0.563 -0.563,1 v 11.375 c 0,0.438 0.188,0.813 0.563,1 0.188,0.125 0.375,0.188 0.563,0.188 0.188,0 0.375,-0.063 0.563,-0.188 z"
     id="path6"
     inkscape:connector-curvature="0" />
</svg>
