<?xml version="1.0" encoding="UTF-8" standalone="no"?>
<!-- Generated by IcoMoon.io -->

<svg
   xmlns:dc="http://purl.org/dc/elements/1.1/"
   xmlns:cc="http://creativecommons.org/ns#"
   xmlns:rdf="http://www.w3.org/1999/02/22-rdf-syntax-ns#"
   xmlns:svg="http://www.w3.org/2000/svg"
   xmlns="http://www.w3.org/2000/svg"
   xmlns:sodipodi="http://sodipodi.sourceforge.net/DTD/sodipodi-0.dtd"
   xmlns:inkscape="http://www.inkscape.org/namespaces/inkscape"
   version="1.1"
   width="32"
   height="32"
   viewBox="0 0 32 32"
   id="svg6"
   sodipodi:docname="plus-circle.svg"
   inkscape:version="0.92.2 (5c3e80d, 2017-08-06)">
  <metadata
     id="metadata12">
    <rdf:RDF>
      <cc:Work
         rdf:about="">
        <dc:format>image/svg+xml</dc:format>
        <dc:type
           rdf:resource="http://purl.org/dc/dcmitype/StillImage" />
      </cc:Work>
    </rdf:RDF>
  </metadata>
  <defs
     id="defs10" />
  <sodipodi:namedview
     pagecolor="#ffffff"
     bordercolor="#666666"
     borderopacity="1"
     objecttolerance="10"
     gridtolerance="10"
     guidetolerance="10"
     inkscape:pageopacity="0"
     inkscape:pageshadow="2"
     inkscape:window-width="686"
     inkscape:window-height="480"
     id="namedview8"
     showgrid="false"
     inkscape:zoom="7.375"
     inkscape:cx="16"
     inkscape:cy="16"
     inkscape:window-x="0"
     inkscape:window-y="0"
     inkscape:window-maximized="0"
     inkscape:current-layer="svg6" />
  <title
     id="title2">plus-circle</title>
  <path
     d="m 24,17.125 v -2.25 c 0,-0.313 -0.125,-0.625 -0.313,-0.813 -0.25,-0.25 -0.5,-0.375 -0.813,-0.375 H 18.311 V 9.124 c 0,-0.313 -0.125,-0.563 -0.375,-0.813 -0.188,-0.188 -0.5,-0.313 -0.813,-0.313 h -2.25 c -0.313,0 -0.625,0.125 -0.813,0.313 -0.25,0.25 -0.375,0.5 -0.375,0.813 v 4.563 H 9.122 c -0.313,0 -0.563,0.125 -0.813,0.375 -0.188,0.188 -0.313,0.5 -0.313,0.813 v 2.25 c 0,0.313 0.125,0.625 0.313,0.813 0.25,0.25 0.5,0.375 0.813,0.375 h 4.563 v 4.563 c 0,0.313 0.125,0.563 0.375,0.813 0.188,0.188 0.5,0.313 0.813,0.313 h 2.25 c 0.313,0 0.625,-0.125 0.813,-0.313 0.25,-0.25 0.375,-0.5 0.375,-0.813 v -4.563 h 4.563 c 0.313,0 0.563,-0.125 0.813,-0.375 C 23.875,17.75 24,17.438 24,17.125 Z M 29.688,16 c 0,2.5 -0.563,4.813 -1.813,6.875 -1.25,2.125 -2.875,3.75 -5,5 -2.063,1.25 -4.375,1.813 -6.875,1.813 -2.5,0 -4.813,-0.563 -6.875,-1.813 C 7,26.625 5.375,25 4.125,22.875 2.875,20.812 2.312,18.5 2.312,16 2.312,13.5 2.875,11.187 4.125,9.125 5.375,7 7,5.375 9.125,4.125 11.188,2.875 13.5,2.312 16,2.312 c 2.5,0 4.813,0.563 6.875,1.813 2.125,1.25 3.75,2.875 5,5 1.25,2.063 1.813,4.375 1.813,6.875 z"
     id="path4"
     inkscape:connector-curvature="0" />
</svg>
