<?xml version="1.0" encoding="UTF-8" standalone="no"?>
<!-- Generated by IcoMoon.io -->

<svg
   xmlns:dc="http://purl.org/dc/elements/1.1/"
   xmlns:cc="http://creativecommons.org/ns#"
   xmlns:rdf="http://www.w3.org/1999/02/22-rdf-syntax-ns#"
   xmlns:svg="http://www.w3.org/2000/svg"
   xmlns="http://www.w3.org/2000/svg"
   xmlns:sodipodi="http://sodipodi.sourceforge.net/DTD/sodipodi-0.dtd"
   xmlns:inkscape="http://www.inkscape.org/namespaces/inkscape"
   version="1.1"
   width="32"
   height="32"
   viewBox="0 0 32 32"
   id="svg6"
   sodipodi:docname="redeploy.svg"
   inkscape:version="0.92.2 (5c3e80d, 2017-08-06)">
  <metadata
     id="metadata12">
    <rdf:RDF>
      <cc:Work
         rdf:about="">
        <dc:format>image/svg+xml</dc:format>
        <dc:type
           rdf:resource="http://purl.org/dc/dcmitype/StillImage" />
      </cc:Work>
    </rdf:RDF>
  </metadata>
  <defs
     id="defs10" />
  <sodipodi:namedview
     pagecolor="#ffffff"
     bordercolor="#666666"
     borderopacity="1"
     objecttolerance="10"
     gridtolerance="10"
     guidetolerance="10"
     inkscape:pageopacity="0"
     inkscape:pageshadow="2"
     inkscape:window-width="686"
     inkscape:window-height="480"
     id="namedview8"
     showgrid="false"
     inkscape:zoom="7.375"
     inkscape:cx="16"
     inkscape:cy="16"
     inkscape:window-x="0"
     inkscape:window-y="0"
     inkscape:window-maximized="0"
     inkscape:current-layer="svg6" />
  <title
     id="title2">redeploy</title>
  <path
     d="m 6.062,4.999 c -1.688,0 -3.063,1.375 -3.063,3.063 V 21 c 0,1.688 1.375,3.063 3.063,3.063 H 11 v 2.938 h 10 v -2.938 h 5.063 c 1.563,0 2.938,-1.375 2.938,-3.063 V 8.062 c 0,-1.688 -1.375,-3.063 -2.938,-3.063 z m -1.063,2 h 22 v 15 h -22 z m 15.688,3.813 v 2.938 c 0,0.125 0,0.188 -0.125,0.313 -0.063,0.063 -0.125,0.125 -0.25,0.125 h -2.938 c -0.188,0 -0.313,-0.125 -0.375,-0.313 -0.063,-0.125 -0.063,-0.313 0.063,-0.438 L 18,12.562 c -0.688,-0.625 -1.438,-0.875 -2.313,-0.875 -0.438,0 -0.875,0.063 -1.25,0.25 -0.438,0.188 -0.813,0.375 -1.063,0.688 -0.313,0.313 -0.563,0.688 -0.75,1.063 -0.188,0.438 -0.25,0.875 -0.25,1.313 0,0.438 0.063,0.875 0.25,1.313 0.188,0.375 0.438,0.75 0.75,1.063 0.25,0.25 0.625,0.5 1.063,0.688 0.375,0.188 0.813,0.25 1.25,0.25 0.563,0 1,-0.063 1.5,-0.313 0.438,-0.25 0.813,-0.563 1.125,-0.938 0.063,-0.063 0.125,-0.125 0.188,-0.125 0.063,0 0.125,0.063 0.125,0.063 l 0.938,0.938 c 0,0 0.063,0.063 0.063,0.125 0,0.062 0,0.063 -0.063,0.125 -0.5,0.563 -1.063,1 -1.75,1.313 -0.625,0.313 -1.375,0.5 -2.125,0.5 -0.625,0 -1.313,-0.125 -1.938,-0.375 -0.625,-0.313 -1.125,-0.625 -1.563,-1.063 -0.438,-0.5 -0.813,-1 -1.063,-1.625 -0.25,-0.625 -0.438,-1.25 -0.438,-1.938 0,-0.688 0.188,-1.313 0.438,-1.938 0.25,-0.625 0.625,-1.125 1.063,-1.625 0.438,-0.438 0.938,-0.75 1.563,-1.063 0.625,-0.25 1.313,-0.375 1.938,-0.375 0.688,0 1.25,0.125 1.875,0.375 0.625,0.25 1.125,0.563 1.563,1 l 0.875,-0.813 c 0.125,-0.188 0.25,-0.188 0.438,-0.125 0.188,0.063 0.25,0.188 0.25,0.375 z"
     id="path4"
     inkscape:connector-curvature="0" />
</svg>
