<?xml version="1.0" encoding="UTF-8" standalone="no"?>
<!-- Generated by IcoMoon.io -->

<svg
   xmlns:dc="http://purl.org/dc/elements/1.1/"
   xmlns:cc="http://creativecommons.org/ns#"
   xmlns:rdf="http://www.w3.org/1999/02/22-rdf-syntax-ns#"
   xmlns:svg="http://www.w3.org/2000/svg"
   xmlns="http://www.w3.org/2000/svg"
   xmlns:sodipodi="http://sodipodi.sourceforge.net/DTD/sodipodi-0.dtd"
   xmlns:inkscape="http://www.inkscape.org/namespaces/inkscape"
   version="1.1"
   width="32"
   height="32"
   viewBox="0 0 32 32"
   id="svg2"
   inkscape:version="0.48.0 r9654"
   sodipodi:docname="rent.svg">
  <metadata
     id="metadata12">
    <rdf:RDF>
      <cc:Work
         rdf:about="">
        <dc:format>image/svg+xml</dc:format>
        <dc:type
           rdf:resource="http://purl.org/dc/dcmitype/StillImage" />
      </cc:Work>
    </rdf:RDF>
  </metadata>
  <defs
     id="defs10" />
  <sodipodi:namedview
     pagecolor="#ffffff"
     bordercolor="#666666"
     borderopacity="1"
     objecttolerance="10"
     gridtolerance="10"
     guidetolerance="10"
     inkscape:pageopacity="0"
     inkscape:pageshadow="2"
     inkscape:window-width="1920"
     inkscape:window-height="1017"
     id="namedview8"
     showgrid="false"
     inkscape:zoom="8.15625"
     inkscape:cx="1.348659"
     inkscape:cy="16"
     inkscape:window-x="-8"
     inkscape:window-y="-8"
     inkscape:window-maximized="1"
     inkscape:current-layer="svg2" />
  <title
     id="title4">rent</title>
  <path
     d="m 4.0005,12.6875 h -2.688 v 14.688 c 0,1.5 1.188,2.625 2.688,2.625 h 18.688 c 1.5,0 2.625,-1.125 2.625,-2.625 H 4.0005 z m 20,-5.312 v -2.688 c 0,-1.5 -1.125,-2.688 -2.688,-2.688 h -5.313 c -1.5,0 -2.688,1.188 -2.688,2.688 v 2.688 h -6.625 v 14.625 c 0,1.563 1.125,2.688 2.625,2.688 h 18.688 c 1.5,0 2.688,-1.125 2.688,-2.688 V 7.3755 z m -8,-2.688 h 5.313 v 2.688 h -5.313 z m 0,16 v -9.313 l 7.313,4 z"
     id="path6"
     inkscape:connector-curvature="0" />
</svg>
