<?xml version="1.0" encoding="UTF-8" standalone="no"?>
<!-- Generated by IcoMoon.io -->

<svg
   xmlns:dc="http://purl.org/dc/elements/1.1/"
   xmlns:cc="http://creativecommons.org/ns#"
   xmlns:rdf="http://www.w3.org/1999/02/22-rdf-syntax-ns#"
   xmlns:svg="http://www.w3.org/2000/svg"
   xmlns="http://www.w3.org/2000/svg"
   xmlns:sodipodi="http://sodipodi.sourceforge.net/DTD/sodipodi-0.dtd"
   xmlns:inkscape="http://www.inkscape.org/namespaces/inkscape"
   version="1.1"
   width="32"
   height="32"
   viewBox="0 0 32 32"
   id="svg6"
   sodipodi:docname="search.svg"
   inkscape:version="0.92.2 (5c3e80d, 2017-08-06)">
  <metadata
     id="metadata12">
    <rdf:RDF>
      <cc:Work
         rdf:about="">
        <dc:format>image/svg+xml</dc:format>
        <dc:type
           rdf:resource="http://purl.org/dc/dcmitype/StillImage" />
      </cc:Work>
    </rdf:RDF>
  </metadata>
  <defs
     id="defs10" />
  <sodipodi:namedview
     pagecolor="#ffffff"
     bordercolor="#666666"
     borderopacity="1"
     objecttolerance="10"
     gridtolerance="10"
     guidetolerance="10"
     inkscape:pageopacity="0"
     inkscape:pageshadow="2"
     inkscape:window-width="686"
     inkscape:window-height="480"
     id="namedview8"
     showgrid="false"
     inkscape:zoom="7.375"
     inkscape:cx="16"
     inkscape:cy="16"
     inkscape:window-x="0"
     inkscape:window-y="0"
     inkscape:window-maximized="0"
     inkscape:current-layer="svg6" />
  <title
     id="title2">search</title>
  <path
     d="m 21.688,13.719 c 0,-2.25 -0.75,-4.125 -2.313,-5.688 -1.563,-1.563 -3.438,-2.313 -5.688,-2.313 -2.188,0 -4.063,0.75 -5.625,2.313 -1.562,1.563 -2.375,3.438 -2.375,5.688 0,2.188 0.813,4.063 2.375,5.625 1.562,1.562 3.438,2.375 5.625,2.375 2.25,0 4.125,-0.813 5.688,-2.375 1.563,-1.562 2.313,-3.438 2.313,-5.625 z m 9.187,14.813 c 0,0.625 -0.25,1.188 -0.688,1.625 -0.438,0.437 -1,0.688 -1.625,0.688 -0.625,0 -1.188,-0.25 -1.625,-0.688 l -6.125,-6.125 c -2.125,1.5 -4.5,2.25 -7.125,2.25 -1.688,0 -3.313,-0.313 -4.875,-1 -1.562,-0.687 -2.875,-1.563 -4,-2.688 -1.125,-1.125 -2,-2.438 -2.688,-4 -0.625,-1.563 -1,-3.188 -1,-4.875 0,-1.75 0.375,-3.375 1,-4.875 0.688,-1.563 1.563,-2.938 2.688,-4.063 1.125,-1.125 2.438,-2 4,-2.688 1.563,-0.625 3.188,-0.938 4.875,-0.938 1.75,0 3.375,0.313 4.938,0.938 1.5,0.688 2.875,1.563 4,2.688 1.125,1.125 2,2.5 2.688,4.063 0.625,1.5 1,3.125 1,4.875 0,2.625 -0.75,5 -2.25,7.125 l 6.125,6.125 c 0.438,0.438 0.688,0.938 0.688,1.563 z"
     id="path4"
     inkscape:connector-curvature="0" />
</svg>
