<?xml version="1.0" encoding="UTF-8" standalone="no"?>
<!-- Generated by IcoMoon.io -->

<svg
   xmlns:dc="http://purl.org/dc/elements/1.1/"
   xmlns:cc="http://creativecommons.org/ns#"
   xmlns:rdf="http://www.w3.org/1999/02/22-rdf-syntax-ns#"
   xmlns:svg="http://www.w3.org/2000/svg"
   xmlns="http://www.w3.org/2000/svg"
   xmlns:sodipodi="http://sodipodi.sourceforge.net/DTD/sodipodi-0.dtd"
   xmlns:inkscape="http://www.inkscape.org/namespaces/inkscape"
   version="1.1"
   width="32"
   height="32"
   viewBox="0 0 32 32"
   id="svg6"
   sodipodi:docname="step-backward.svg"
   inkscape:version="0.92.2 (5c3e80d, 2017-08-06)">
  <metadata
     id="metadata12">
    <rdf:RDF>
      <cc:Work
         rdf:about="">
        <dc:format>image/svg+xml</dc:format>
        <dc:type
           rdf:resource="http://purl.org/dc/dcmitype/StillImage" />
      </cc:Work>
    </rdf:RDF>
  </metadata>
  <defs
     id="defs10" />
  <sodipodi:namedview
     pagecolor="#ffffff"
     bordercolor="#666666"
     borderopacity="1"
     objecttolerance="10"
     gridtolerance="10"
     guidetolerance="10"
     inkscape:pageopacity="0"
     inkscape:pageshadow="2"
     inkscape:window-width="686"
     inkscape:window-height="480"
     id="namedview8"
     showgrid="false"
     inkscape:zoom="7.375"
     inkscape:cx="16"
     inkscape:cy="16"
     inkscape:window-x="0"
     inkscape:window-y="0"
     inkscape:window-maximized="0"
     inkscape:current-layer="svg6" />
  <title
     id="title2">step-backward</title>
  <path
     d="m 24.313,2.5 c 0.25,-0.188 0.438,-0.313 0.625,-0.188 0.125,0.063 0.188,0.25 0.188,0.563 v 26.25 c 0,0.313 -0.063,0.5 -0.188,0.563 -0.188,0.125 -0.375,0 -0.625,-0.188 L 11.688,16.812 c -0.125,-0.125 -0.188,-0.25 -0.25,-0.375 v 12.125 c 0,0.313 -0.125,0.563 -0.375,0.813 -0.188,0.25 -0.438,0.313 -0.75,0.313 H 8 c -0.313,0 -0.563,-0.063 -0.813,-0.313 -0.188,-0.25 -0.313,-0.5 -0.313,-0.813 V 3.437 C 6.874,3.124 6.999,2.874 7.187,2.624 7.437,2.374 7.687,2.311 8,2.311 h 2.313 c 0.313,0 0.563,0.063 0.75,0.313 0.25,0.25 0.375,0.5 0.375,0.813 v 12.125 c 0.063,-0.188 0.125,-0.25 0.25,-0.375 z"
     id="path4"
     inkscape:connector-curvature="0" />
</svg>
