<?xml version="1.0" encoding="UTF-8" standalone="no"?>
<!-- Generated by IcoMoon.io -->

<svg
   xmlns:dc="http://purl.org/dc/elements/1.1/"
   xmlns:cc="http://creativecommons.org/ns#"
   xmlns:rdf="http://www.w3.org/1999/02/22-rdf-syntax-ns#"
   xmlns:svg="http://www.w3.org/2000/svg"
   xmlns="http://www.w3.org/2000/svg"
   xmlns:sodipodi="http://sodipodi.sourceforge.net/DTD/sodipodi-0.dtd"
   xmlns:inkscape="http://www.inkscape.org/namespaces/inkscape"
   version="1.1"
   width="32"
   height="32"
   viewBox="0 0 32 32"
   id="svg2"
   inkscape:version="0.48.0 r9654"
   sodipodi:docname="tag.svg">
  <metadata
     id="metadata12">
    <rdf:RDF>
      <cc:Work
         rdf:about="">
        <dc:format>image/svg+xml</dc:format>
        <dc:type
           rdf:resource="http://purl.org/dc/dcmitype/StillImage" />
      </cc:Work>
    </rdf:RDF>
  </metadata>
  <defs
     id="defs10" />
  <sodipodi:namedview
     pagecolor="#ffffff"
     bordercolor="#666666"
     borderopacity="1"
     objecttolerance="10"
     gridtolerance="10"
     guidetolerance="10"
     inkscape:pageopacity="0"
     inkscape:pageshadow="2"
     inkscape:window-width="1920"
     inkscape:window-height="1017"
     id="namedview8"
     showgrid="false"
     inkscape:zoom="8.15625"
     inkscape:cx="1.348659"
     inkscape:cy="16"
     inkscape:window-x="-8"
     inkscape:window-y="-8"
     inkscape:window-maximized="1"
     inkscape:current-layer="svg2" />
  <title
     id="title4">tag</title>
  <path
     d="m 10.5005,8.187 c 0,-0.625 -0.25,-1.188 -0.688,-1.625 -0.438,-0.437 -1,-0.688 -1.625,-0.688 -0.625,0 -1.188,0.25 -1.625,0.688 -0.437,0.438 -0.688,1 -0.688,1.625 0,0.625 0.25,1.188 0.688,1.625 0.438,0.437 1,0.688 1.625,0.688 0.625,0 1.188,-0.25 1.625,-0.688 0.437,-0.438 0.688,-1 0.688,-1.625 z m 19,10.313 c 0,0.625 -0.188,1.125 -0.625,1.563 l -8.75,8.813 c -0.5,0.438 -1.063,0.625 -1.625,0.625 -0.688,0 -1.188,-0.188 -1.625,-0.625 L 4.1255,16.063 c -0.5,-0.438 -0.875,-1 -1.188,-1.813 -0.313,-0.75 -0.438,-1.438 -0.438,-2.063 V 4.749 c 0,-0.625 0.188,-1.125 0.625,-1.625 0.5,-0.438 1,-0.625 1.625,-0.625 h 7.438 c 0.625,0 1.313,0.125 2.063,0.438 0.813,0.313 1.375,0.688 1.875,1.188 l 12.75,12.75 c 0.438,0.438 0.625,1 0.625,1.625 z"
     id="path6"
     inkscape:connector-curvature="0" />
</svg>
