<?xml version="1.0" encoding="UTF-8" standalone="no"?>
<!-- Generated by IcoMoon.io -->

<svg
   xmlns:dc="http://purl.org/dc/elements/1.1/"
   xmlns:cc="http://creativecommons.org/ns#"
   xmlns:rdf="http://www.w3.org/1999/02/22-rdf-syntax-ns#"
   xmlns:svg="http://www.w3.org/2000/svg"
   xmlns="http://www.w3.org/2000/svg"
   xmlns:sodipodi="http://sodipodi.sourceforge.net/DTD/sodipodi-0.dtd"
   xmlns:inkscape="http://www.inkscape.org/namespaces/inkscape"
   version="1.1"
   width="32"
   height="32"
   viewBox="0 0 32 32"
   id="svg6"
   sodipodi:docname="thumbs-o-up.svg"
   inkscape:version="0.92.2 (5c3e80d, 2017-08-06)">
  <metadata
     id="metadata12">
    <rdf:RDF>
      <cc:Work
         rdf:about="">
        <dc:format>image/svg+xml</dc:format>
        <dc:type
           rdf:resource="http://purl.org/dc/dcmitype/StillImage" />
      </cc:Work>
    </rdf:RDF>
  </metadata>
  <defs
     id="defs10" />
  <sodipodi:namedview
     pagecolor="#ffffff"
     bordercolor="#666666"
     borderopacity="1"
     objecttolerance="10"
     gridtolerance="10"
     guidetolerance="10"
     inkscape:pageopacity="0"
     inkscape:pageshadow="2"
     inkscape:window-width="686"
     inkscape:window-height="480"
     id="namedview8"
     showgrid="false"
     inkscape:zoom="7.375"
     inkscape:cx="16"
     inkscape:cy="16"
     inkscape:window-x="0"
     inkscape:window-y="0"
     inkscape:window-maximized="0"
     inkscape:current-layer="svg6" />
  <title
     id="title2">thumbs-o-up</title>
  <path
     d="m 6.8745,25.156 c 0,-0.313 -0.125,-0.563 -0.375,-0.813 -0.188,-0.188 -0.5,-0.313 -0.813,-0.313 -0.313,0 -0.563,0.125 -0.75,0.313 -0.25,0.25 -0.375,0.5 -0.375,0.813 0,0.313 0.125,0.563 0.375,0.813 0.188,0.188 0.438,0.313 0.75,0.313 0.312,0 0.625,-0.125 0.813,-0.313 0.25,-0.25 0.375,-0.5 0.375,-0.813 z m 20.563,-10.312 c 0,-0.563 -0.25,-1.125 -0.688,-1.563 -0.5,-0.438 -1,-0.688 -1.625,-0.688 h -6.25 c 0,-0.688 0.25,-1.625 0.813,-2.875 0.625,-1.188 0.875,-2.125 0.875,-2.875 0,-1.125 -0.188,-2 -0.563,-2.563 -0.375,-0.563 -1.125,-0.813 -2.313,-0.813 -0.313,0.313 -0.5,0.813 -0.625,1.5 -0.188,0.688 -0.375,1.438 -0.563,2.25 -0.25,0.75 -0.563,1.438 -1.063,1.938 -0.25,0.25 -0.75,0.813 -1.375,1.625 -0.063,0.063 -0.188,0.25 -0.438,0.563 -0.188,0.25 -0.375,0.5 -0.563,0.688 -0.125,0.188 -0.313,0.438 -0.625,0.75 -0.25,0.313 -0.5,0.625 -0.688,0.813 -0.188,0.188 -0.438,0.438 -0.688,0.625 -0.25,0.25 -0.5,0.375 -0.688,0.5 -0.25,0.125 -0.5,0.125 -0.688,0.125 h -0.563 v 11.438 h 0.563 c 0.188,0 0.375,0.063 0.563,0.063 0.25,0.063 0.438,0.063 0.625,0.125 0.187,0.062 0.375,0.125 0.688,0.188 0.25,0.125 0.5,0.188 0.625,0.188 0.125,0.063 0.313,0.125 0.625,0.25 0.25,0.125 0.438,0.188 0.5,0.188 2.5,0.875 4.563,1.313 6.125,1.313 h 2.125 c 2.313,0 3.438,-1 3.438,-3 0,-0.313 0,-0.625 -0.063,-1 0.375,-0.188 0.625,-0.5 0.813,-0.938 0.25,-0.438 0.313,-0.875 0.313,-1.313 0,-0.438 -0.063,-0.813 -0.313,-1.25 0.625,-0.563 0.938,-1.25 0.938,-2.125 0,-0.25 -0.063,-0.625 -0.125,-0.938 -0.125,-0.375 -0.313,-0.688 -0.5,-0.875 0.438,0 0.75,-0.313 1,-0.813 0.25,-0.563 0.375,-1.063 0.375,-1.5 z m 2.25,0 c 0,1.063 -0.25,2.063 -0.875,2.938 0.125,0.375 0.188,0.813 0.188,1.188 0,0.938 -0.25,1.813 -0.688,2.625 0.063,0.25 0.063,0.5 0.063,0.75 0,1.188 -0.375,2.25 -1.063,3.188 0,1.625 -0.5,2.938 -1.5,3.875 -1.063,1 -2.375,1.438 -4.063,1.438 h -2.313 c -1.125,0 -2.25,-0.125 -3.375,-0.375 -1.125,-0.25 -2.438,-0.688 -3.875,-1.188 -1.375,-0.438 -2.188,-0.688 -2.5,-0.688 h -5.125 c -0.625,0 -1.188,-0.25 -1.625,-0.688 -0.437,-0.438 -0.625,-1 -0.625,-1.625 V 14.844 c 0,-0.625 0.188,-1.125 0.625,-1.563 0.438,-0.5 1,-0.688 1.625,-0.688 h 4.875 c 0.438,-0.313 1.25,-1.188 2.5,-2.75 0.688,-0.938 1.313,-1.688 1.875,-2.313 0.313,-0.313 0.5,-0.813 0.625,-1.5 0.125,-0.75 0.313,-1.5 0.563,-2.313 0.25,-0.75 0.625,-1.375 1.125,-1.875 0.438,-0.438 1,-0.688 1.563,-0.688 1,0 1.938,0.188 2.75,0.563 0.75,0.375 1.375,1 1.813,1.813 0.375,0.813 0.625,1.938 0.625,3.313 0,1.125 -0.313,2.25 -0.875,3.438 h 3.125 c 1.25,0 2.313,0.5 3.25,1.375 0.875,0.875 1.313,2 1.313,3.188 z"
     id="path4"
     inkscape:connector-curvature="0" />
</svg>
