<?xml version="1.0" encoding="UTF-8" standalone="no"?>
<!-- Generated by IcoMoon.io -->

<svg
   xmlns:dc="http://purl.org/dc/elements/1.1/"
   xmlns:cc="http://creativecommons.org/ns#"
   xmlns:rdf="http://www.w3.org/1999/02/22-rdf-syntax-ns#"
   xmlns:svg="http://www.w3.org/2000/svg"
   xmlns="http://www.w3.org/2000/svg"
   xmlns:sodipodi="http://sodipodi.sourceforge.net/DTD/sodipodi-0.dtd"
   xmlns:inkscape="http://www.inkscape.org/namespaces/inkscape"
   version="1.1"
   width="32"
   height="32"
   viewBox="0 0 32 32"
   id="svg2"
   inkscape:version="0.48.0 r9654"
   sodipodi:docname="usd.svg">
  <metadata
     id="metadata12">
    <rdf:RDF>
      <cc:Work
         rdf:about="">
        <dc:format>image/svg+xml</dc:format>
        <dc:type
           rdf:resource="http://purl.org/dc/dcmitype/StillImage" />
      </cc:Work>
    </rdf:RDF>
  </metadata>
  <defs
     id="defs10" />
  <sodipodi:namedview
     pagecolor="#ffffff"
     bordercolor="#666666"
     borderopacity="1"
     objecttolerance="10"
     gridtolerance="10"
     guidetolerance="10"
     inkscape:pageopacity="0"
     inkscape:pageshadow="2"
     inkscape:window-width="1920"
     inkscape:window-height="1017"
     id="namedview8"
     showgrid="false"
     inkscape:zoom="8.15625"
     inkscape:cx="1.348659"
     inkscape:cy="16"
     inkscape:window-x="-8"
     inkscape:window-y="-8"
     inkscape:window-maximized="1"
     inkscape:current-layer="svg2" />
  <title
     id="title4">usd</title>
  <path
     d="m 24.322,21.1905 c 0,1.813 -0.563,3.375 -1.75,4.688 -1.187,1.313 -2.75,2.125 -4.625,2.438 v 3.125 c 0,0.188 -0.063,0.313 -0.188,0.375 -0.063,0.125 -0.25,0.188 -0.375,0.188 h -2.438 c -0.125,0 -0.25,-0.063 -0.375,-0.188 -0.125,-0.125 -0.188,-0.25 -0.188,-0.375 v -3.125 c -0.813,-0.125 -1.563,-0.313 -2.25,-0.563 -0.75,-0.25 -1.375,-0.5 -1.813,-0.813 -0.5,-0.25 -0.938,-0.563 -1.375,-0.813 -0.375,-0.313 -0.625,-0.563 -0.813,-0.688 -0.125,-0.125 -0.25,-0.25 -0.313,-0.313 -0.188,-0.25 -0.188,-0.5 0,-0.75 l 1.813,-2.438 c 0.063,-0.063 0.25,-0.188 0.438,-0.188 0.125,0 0.313,0 0.375,0.188 h 0.063 c 1.375,1.188 2.813,1.938 4.313,2.25 0.438,0.063 0.938,0.125 1.375,0.125 0.938,0 1.813,-0.25 2.5,-0.75 0.75,-0.5 1.125,-1.25 1.125,-2.188 0,-0.313 -0.125,-0.625 -0.25,-0.938 -0.188,-0.313 -0.375,-0.563 -0.625,-0.75 -0.25,-0.187 -0.563,-0.438 -1.063,-0.688 -0.438,-0.25 -0.875,-0.438 -1.188,-0.563 -0.313,-0.125 -0.75,-0.313 -1.375,-0.563 -0.5,-0.188 -0.875,-0.375 -1.125,-0.438 -0.25,-0.125 -0.625,-0.313 -1.125,-0.5 -0.438,-0.188 -0.813,-0.375 -1.063,-0.563 -0.313,-0.125 -0.625,-0.375 -1.063,-0.625 -0.375,-0.25 -0.688,-0.5 -0.938,-0.75 -0.25,-0.25 -0.5,-0.563 -0.75,-0.875 -0.313,-0.375 -0.5,-0.688 -0.625,-1.063 -0.188,-0.313 -0.313,-0.75 -0.375,-1.188 -0.125,-0.438 -0.188,-0.875 -0.188,-1.375 0,-1.625 0.563,-3.063 1.75,-4.313 1.187,-1.25 2.688,-2.063 4.563,-2.375 v -3.25 c 0,-0.125 0.063,-0.25 0.188,-0.375 0.125,-0.125 0.25,-0.188 0.375,-0.188 h 2.438 c 0.125,0 0.313,0.063 0.375,0.188 0.125,0.063 0.188,0.188 0.188,0.375 v 3.125 c 0.688,0.125 1.313,0.25 1.938,0.438 0.688,0.188 1.188,0.375 1.563,0.625 0.438,0.188 0.813,0.375 1.125,0.625 0.375,0.25 0.625,0.438 0.75,0.563 0.063,0.063 0.188,0.125 0.25,0.25 0.188,0.188 0.25,0.438 0.063,0.625 l -1.438,2.625 c -0.063,0.188 -0.25,0.313 -0.375,0.313 -0.188,0 -0.375,0 -0.5,-0.125 -0.063,-0.063 -0.125,-0.125 -0.25,-0.25 -0.125,-0.063 -0.375,-0.25 -0.688,-0.438 -0.375,-0.25 -0.688,-0.438 -1.063,-0.563 -0.375,-0.188 -0.813,-0.375 -1.313,-0.5 -0.563,-0.125 -1.063,-0.188 -1.563,-0.188 -1.125,0 -2.063,0.25 -2.75,0.75 -0.75,0.5 -1.063,1.188 -1.063,2 0,0.313 0.063,0.563 0.125,0.875 0.125,0.25 0.313,0.5 0.563,0.688 0.25,0.25 0.438,0.438 0.688,0.625 0.188,0.125 0.563,0.313 1,0.563 0.438,0.188 0.813,0.375 1.063,0.438 0.313,0.125 0.688,0.313 1.25,0.5 0.625,0.25 1.125,0.438 1.438,0.563 0.375,0.125 0.813,0.375 1.375,0.625 0.563,0.313 1,0.563 1.375,0.75 0.313,0.25 0.688,0.563 1.063,0.938 0.438,0.375 0.75,0.75 0.938,1.125 0.25,0.375 0.438,0.813 0.563,1.375 0.188,0.5 0.25,1.063 0.25,1.688 z"
     id="path6"
     inkscape:connector-curvature="0" />
</svg>
