<?xml version="1.0" encoding="UTF-8" standalone="no"?>
<!-- Generated by IcoMoon.io -->

<svg
   xmlns:dc="http://purl.org/dc/elements/1.1/"
   xmlns:cc="http://creativecommons.org/ns#"
   xmlns:rdf="http://www.w3.org/1999/02/22-rdf-syntax-ns#"
   xmlns:svg="http://www.w3.org/2000/svg"
   xmlns="http://www.w3.org/2000/svg"
   xmlns:sodipodi="http://sodipodi.sourceforge.net/DTD/sodipodi-0.dtd"
   xmlns:inkscape="http://www.inkscape.org/namespaces/inkscape"
   version="1.1"
   width="32"
   height="32"
   viewBox="0 0 32 32"
   id="svg2"
   inkscape:version="0.48.0 r9654"
   sodipodi:docname="user-area.svg">
  <metadata
     id="metadata12">
    <rdf:RDF>
      <cc:Work
         rdf:about="">
        <dc:format>image/svg+xml</dc:format>
        <dc:type
           rdf:resource="http://purl.org/dc/dcmitype/StillImage" />
      </cc:Work>
    </rdf:RDF>
  </metadata>
  <defs
     id="defs10" />
  <sodipodi:namedview
     pagecolor="#ffffff"
     bordercolor="#666666"
     borderopacity="1"
     objecttolerance="10"
     gridtolerance="10"
     guidetolerance="10"
     inkscape:pageopacity="0"
     inkscape:pageshadow="2"
     inkscape:window-width="1920"
     inkscape:window-height="1017"
     id="namedview8"
     showgrid="false"
     inkscape:zoom="8.15625"
     inkscape:cx="1.348659"
     inkscape:cy="16"
     inkscape:window-x="-8"
     inkscape:window-y="-8"
     inkscape:window-maximized="1"
     inkscape:current-layer="svg2" />
  <title
     id="title4">user-area</title>
  <path
     d="m 15.9995,16.3745 c 1.688,0 3,-1.375 3,-3.063 0,-1.688 -1.313,-3 -3,-3 -1.688,0 -3,1.313 -3,3 0,1.687 1.313,3.063 3,3.063 z m 6.063,5.313 c 0,-1.938 -4,-3 -6.063,-3 -2.063,0 -6.063,0.938 -6.063,3 v 1 h 12 v -1 z m 3.25,-17.688 H 6.6875 c -1.438,0 -2.688,1.25 -2.688,2.688 v 18.625 c 0,1.563 1.25,2.688 2.688,2.688 h 18.625 c 1.563,0 2.688,-1.125 2.688,-2.688 V 6.6875 c 0,-1.438 -1.125,-2.688 -2.688,-2.688 z m 0,21.313 H 6.6875 V 6.6875 h 18.625 z"
     id="path6"
     inkscape:connector-curvature="0" />
</svg>
