<?xml version="1.0" encoding="UTF-8" standalone="no"?>
<!-- Generated by IcoMoon.io -->

<svg
   xmlns:dc="http://purl.org/dc/elements/1.1/"
   xmlns:cc="http://creativecommons.org/ns#"
   xmlns:rdf="http://www.w3.org/1999/02/22-rdf-syntax-ns#"
   xmlns:svg="http://www.w3.org/2000/svg"
   xmlns="http://www.w3.org/2000/svg"
   xmlns:sodipodi="http://sodipodi.sourceforge.net/DTD/sodipodi-0.dtd"
   xmlns:inkscape="http://www.inkscape.org/namespaces/inkscape"
   version="1.1"
   width="32"
   height="32"
   viewBox="0 0 32 32"
   id="svg6"
   sodipodi:docname="volume-up.svg"
   inkscape:version="0.92.2 (5c3e80d, 2017-08-06)">
  <metadata
     id="metadata12">
    <rdf:RDF>
      <cc:Work
         rdf:about="">
        <dc:format>image/svg+xml</dc:format>
        <dc:type
           rdf:resource="http://purl.org/dc/dcmitype/StillImage" />
      </cc:Work>
    </rdf:RDF>
  </metadata>
  <defs
     id="defs10" />
  <sodipodi:namedview
     pagecolor="#ffffff"
     bordercolor="#666666"
     borderopacity="1"
     objecttolerance="10"
     gridtolerance="10"
     guidetolerance="10"
     inkscape:pageopacity="0"
     inkscape:pageshadow="2"
     inkscape:window-width="686"
     inkscape:window-height="480"
     id="namedview8"
     showgrid="false"
     inkscape:zoom="7.375"
     inkscape:cx="16"
     inkscape:cy="16"
     inkscape:window-x="0"
     inkscape:window-y="0"
     inkscape:window-maximized="0"
     inkscape:current-layer="svg6" />
  <title
     id="title2">volume-up</title>
  <path
     d="M 14.8755,6.315 V 25.69 c 0,0.313 -0.125,0.625 -0.375,0.813 -0.188,0.25 -0.5,0.375 -0.813,0.375 -0.313,0 -0.563,-0.125 -0.75,-0.375 l -6,-5.938 h -4.625 c -0.313,0 -0.625,-0.125 -0.813,-0.313 -0.25,-0.25 -0.375,-0.5 -0.375,-0.813 v -6.875 c 0,-0.313 0.125,-0.563 0.375,-0.813 0.188,-0.188 0.5,-0.313 0.813,-0.313 h 4.625 l 6,-5.938 c 0.188,-0.25 0.438,-0.375 0.75,-0.375 0.312,0 0.625,0.125 0.813,0.375 0.25,0.188 0.375,0.5 0.375,0.813 z m 6.813,9.687 c 0,0.875 -0.25,1.75 -0.75,2.5 -0.5,0.813 -1.188,1.375 -2,1.688 -0.125,0.063 -0.25,0.125 -0.438,0.125 -0.313,0 -0.563,-0.125 -0.813,-0.375 -0.188,-0.188 -0.313,-0.5 -0.313,-0.813 0,-0.25 0.063,-0.438 0.188,-0.625 0.125,-0.187 0.313,-0.313 0.5,-0.438 0.25,-0.125 0.438,-0.25 0.625,-0.438 0.188,-0.125 0.375,-0.313 0.5,-0.625 0.188,-0.25 0.25,-0.625 0.25,-1 0,-0.375 -0.063,-0.75 -0.25,-1 -0.125,-0.313 -0.313,-0.5 -0.5,-0.625 -0.188,-0.188 -0.375,-0.313 -0.625,-0.438 -0.188,-0.125 -0.375,-0.25 -0.5,-0.438 -0.125,-0.188 -0.188,-0.375 -0.188,-0.625 0,-0.313 0.125,-0.625 0.313,-0.813 0.25,-0.25 0.5,-0.375 0.813,-0.375 0.188,0 0.313,0.063 0.438,0.125 0.813,0.313 1.5,0.875 2,1.625 0.5,0.813 0.75,1.688 0.75,2.563 z m 4.625,0 c 0,1.813 -0.563,3.5 -1.563,5.063 -1,1.5 -2.313,2.625 -4,3.375 -0.125,0.063 -0.313,0.063 -0.438,0.063 -0.313,0 -0.625,-0.125 -0.813,-0.313 -0.25,-0.25 -0.375,-0.5 -0.375,-0.813 0,-0.5 0.25,-0.813 0.688,-1.063 0.688,-0.375 1.125,-0.625 1.375,-0.813 0.875,-0.625 1.563,-1.438 2.063,-2.375 0.5,-1 0.75,-2 0.75,-3.125 0,-1.125 -0.25,-2.125 -0.75,-3.125 -0.5,-0.938 -1.188,-1.75 -2.063,-2.375 -0.25,-0.188 -0.688,-0.438 -1.375,-0.813 -0.438,-0.25 -0.688,-0.563 -0.688,-1.063 0,-0.313 0.125,-0.563 0.375,-0.813 0.188,-0.188 0.5,-0.313 0.813,-0.313 0.125,0 0.313,0 0.438,0.063 1.688,0.75 3,1.875 4,3.375 1,1.563 1.563,3.25 1.563,5.063 z m 4.562,0 c 0,2.75 -0.75,5.25 -2.313,7.563 -1.5,2.25 -3.5,3.938 -6,5.063 -0.188,0.063 -0.313,0.063 -0.5,0.063 -0.313,0 -0.563,-0.125 -0.75,-0.313 -0.25,-0.25 -0.375,-0.5 -0.375,-0.813 0,-0.438 0.25,-0.813 0.688,-1.063 0.125,-0.063 0.25,-0.125 0.438,-0.188 0.188,-0.063 0.313,-0.125 0.375,-0.188 0.563,-0.313 1.063,-0.625 1.5,-0.938 1.438,-1.063 2.563,-2.438 3.375,-4 0.875,-1.625 1.25,-3.375 1.25,-5.188 0,-1.813 -0.375,-3.563 -1.25,-5.188 -0.813,-1.563 -1.938,-2.938 -3.375,-4 -0.438,-0.313 -0.938,-0.625 -1.5,-0.938 -0.063,-0.063 -0.188,-0.125 -0.375,-0.188 -0.187,-0.063 -0.313,-0.125 -0.438,-0.188 -0.438,-0.25 -0.688,-0.625 -0.688,-1.063 0,-0.313 0.125,-0.563 0.375,-0.813 0.188,-0.188 0.438,-0.313 0.75,-0.313 0.188,0 0.313,0 0.5,0.063 2.5,1.125 4.5,2.813 6,5.063 1.563,2.313 2.313,4.813 2.313,7.563 z"
     id="path4"
     inkscape:connector-curvature="0" />
</svg>
