<?xml version="1.0" encoding="UTF-8" standalone="no"?>
<!-- Generated by IcoMoon.io -->

<svg
   xmlns:dc="http://purl.org/dc/elements/1.1/"
   xmlns:cc="http://creativecommons.org/ns#"
   xmlns:rdf="http://www.w3.org/1999/02/22-rdf-syntax-ns#"
   xmlns:svg="http://www.w3.org/2000/svg"
   xmlns="http://www.w3.org/2000/svg"
   xmlns:sodipodi="http://sodipodi.sourceforge.net/DTD/sodipodi-0.dtd"
   xmlns:inkscape="http://www.inkscape.org/namespaces/inkscape"
   version="1.1"
   width="32"
   height="32"
   viewBox="0 0 32 32"
   id="svg6"
   sodipodi:docname="whatsapp.svg"
   inkscape:version="0.92.2 (5c3e80d, 2017-08-06)">
  <metadata
     id="metadata12">
    <rdf:RDF>
      <cc:Work
         rdf:about="">
        <dc:format>image/svg+xml</dc:format>
        <dc:type
           rdf:resource="http://purl.org/dc/dcmitype/StillImage" />
      </cc:Work>
    </rdf:RDF>
  </metadata>
  <defs
     id="defs10" />
  <sodipodi:namedview
     pagecolor="#ffffff"
     bordercolor="#666666"
     borderopacity="1"
     objecttolerance="10"
     gridtolerance="10"
     guidetolerance="10"
     inkscape:pageopacity="0"
     inkscape:pageshadow="2"
     inkscape:window-width="686"
     inkscape:window-height="480"
     id="namedview8"
     showgrid="false"
     inkscape:zoom="7.375"
     inkscape:cx="16"
     inkscape:cy="16"
     inkscape:window-x="0"
     inkscape:window-y="0"
     inkscape:window-maximized="0"
     inkscape:current-layer="svg6" />
  <title
     id="title2">whatsapp</title>
  <path
     d="m 19.875,17.3735 c 0.125,0 0.75,0.25 1.75,0.813 1,0.5 1.5,0.813 1.563,0.938 0.063,0.063 0.063,0.125 0.063,0.25 0,0.438 -0.125,0.875 -0.313,1.375 -0.188,0.438 -0.625,0.875 -1.25,1.188 -0.688,0.313 -1.25,0.438 -1.813,0.438 -0.688,0 -1.813,-0.375 -3.438,-1.063 -1.125,-0.563 -2.125,-1.25 -3,-2.125 -0.875,-0.875 -1.75,-2 -2.625,-3.313 -0.875,-1.25 -1.313,-2.438 -1.313,-3.438 v -0.188 c 0.063,-1.063 0.5,-2 1.313,-2.813 0.313,-0.25 0.625,-0.375 0.938,-0.375 0.063,0 0.188,0 0.313,0 0.188,0.063 0.313,0.063 0.375,0.063 0.188,0 0.375,0 0.438,0.125 0.125,0.063 0.188,0.188 0.313,0.438 0.063,0.25 0.313,0.813 0.563,1.625 0.313,0.813 0.438,1.25 0.438,1.313 0,0.25 -0.188,0.563 -0.563,1 -0.438,0.438 -0.625,0.75 -0.625,0.875 0,0.063 0,0.125 0.063,0.25 0.438,0.875 1,1.688 1.813,2.438 0.688,0.625 1.563,1.25 2.688,1.813 0.188,0.063 0.313,0.125 0.438,0.125 0.188,0 0.5,-0.313 0.938,-0.875 0.5,-0.563 0.813,-0.875 0.938,-0.875 z m -3.625,9.5 c 1.5,0 2.938,-0.313 4.375,-0.938 1.375,-0.563 2.563,-1.375 3.563,-2.375 1,-1 1.813,-2.188 2.375,-3.563 0.625,-1.375 0.875,-2.875 0.875,-4.375 0,-1.5 -0.25,-2.938 -0.875,-4.313 -0.563,-1.375 -1.375,-2.625 -2.375,-3.625 -1,-1 -2.188,-1.75 -3.563,-2.375 -1.438,-0.563 -2.875,-0.875 -4.375,-0.875 -1.5,0 -2.938,0.313 -4.375,0.875 -1.375,0.625 -2.563,1.375 -3.563,2.375 -1,1 -1.813,2.25 -2.375,3.625 -0.625,1.375 -0.875,2.813 -0.875,4.313 0,2.438 0.688,4.625 2.125,6.563 l -1.438,4.188 4.313,-1.375 c 1.938,1.25 3.938,1.875 6.188,1.875 z m 0,-24.687 c 1.813,0 3.563,0.375 5.25,1.063 1.625,0.688 3.063,1.688 4.25,2.875 1.25,1.188 2.188,2.625 2.875,4.313 0.75,1.625 1.063,3.375 1.063,5.188 0,1.813 -0.313,3.563 -1.063,5.25 -0.688,1.625 -1.625,3.063 -2.875,4.313 -1.188,1.188 -2.625,2.125 -4.25,2.875 -1.688,0.688 -3.438,1.063 -5.25,1.063 -2.313,0 -4.5,-0.563 -6.5,-1.688 l -7.438,2.375 2.375,-7.25 c -1.25,-2.063 -1.875,-4.438 -1.875,-6.938 0,-1.813 0.313,-3.563 1.063,-5.188 C 4.563,8.7495 5.5,7.3125 6.75,6.1245 7.938,4.9365 9.375,3.9365 11,3.2495 c 1.688,-0.688 3.438,-1.063 5.25,-1.063 z"
     id="path4"
     inkscape:connector-curvature="0" />
</svg>
