<?xml version="1.0" encoding="UTF-8" standalone="no"?>
<!-- Generated by IcoMoon.io -->

<svg
   xmlns:dc="http://purl.org/dc/elements/1.1/"
   xmlns:cc="http://creativecommons.org/ns#"
   xmlns:rdf="http://www.w3.org/1999/02/22-rdf-syntax-ns#"
   xmlns:svg="http://www.w3.org/2000/svg"
   xmlns="http://www.w3.org/2000/svg"
   xmlns:sodipodi="http://sodipodi.sourceforge.net/DTD/sodipodi-0.dtd"
   xmlns:inkscape="http://www.inkscape.org/namespaces/inkscape"
   version="1.1"
   width="32"
   height="32"
   viewBox="0 0 32 32"
   id="svg6"
   sodipodi:docname="wrench.svg"
   inkscape:version="0.92.2 (5c3e80d, 2017-08-06)">
  <metadata
     id="metadata12">
    <rdf:RDF>
      <cc:Work
         rdf:about="">
        <dc:format>image/svg+xml</dc:format>
        <dc:type
           rdf:resource="http://purl.org/dc/dcmitype/StillImage" />
      </cc:Work>
    </rdf:RDF>
  </metadata>
  <defs
     id="defs10" />
  <sodipodi:namedview
     pagecolor="#ffffff"
     bordercolor="#666666"
     borderopacity="1"
     objecttolerance="10"
     gridtolerance="10"
     guidetolerance="10"
     inkscape:pageopacity="0"
     inkscape:pageshadow="2"
     inkscape:window-width="686"
     inkscape:window-height="480"
     id="namedview8"
     showgrid="false"
     inkscape:zoom="7.375"
     inkscape:cx="16"
     inkscape:cy="16"
     inkscape:window-x="0"
     inkscape:window-y="0"
     inkscape:window-maximized="0"
     inkscape:current-layer="svg6" />
  <title
     id="title2">wrench</title>
  <path
     d="m 7.8435,25.344 c 0,-0.313 -0.125,-0.625 -0.313,-0.813 -0.25,-0.25 -0.5,-0.375 -0.813,-0.375 -0.313,0 -0.625,0.125 -0.813,0.375 -0.25,0.188 -0.375,0.5 -0.375,0.813 0,0.313 0.125,0.563 0.375,0.75 0.188,0.25 0.5,0.375 0.813,0.375 0.313,0 0.563,-0.125 0.813,-0.375 0.188,-0.188 0.313,-0.438 0.313,-0.75 z m 11.5,-7.5 -12.188,12.125 c -0.438,0.438 -0.938,0.688 -1.625,0.688 -0.563,0 -1.125,-0.25 -1.625,-0.688 l -1.875,-1.875 c -0.438,-0.438 -0.688,-1 -0.688,-1.625 0,-0.625 0.25,-1.188 0.688,-1.625 l 12.188,-12.188 c 0.438,1.188 1.125,2.188 2,3.125 0.938,0.875 1.938,1.563 3.125,2.063 z m 11.313,-7.813 c 0,0.5 -0.125,1.125 -0.375,1.938 -0.563,1.563 -1.563,2.875 -2.938,3.875 -1.438,1 -2.938,1.5 -4.625,1.5 -2.25,0 -4.125,-0.813 -5.688,-2.375 -1.563,-1.562 -2.313,-3.438 -2.313,-5.625 0,-2.25 0.75,-4.125 2.313,-5.688 1.563,-1.563 3.438,-2.313 5.688,-2.313 0.688,0 1.375,0.063 2.125,0.25 0.813,0.188 1.438,0.5 1.938,0.875 0.188,0.125 0.313,0.25 0.313,0.5 0,0.188 -0.125,0.313 -0.313,0.5 l -5.25,3 v 4 l 3.5,1.875 c 0.063,0 0.5,-0.313 1.375,-0.813 0.875,-0.563 1.688,-1.063 2.438,-1.5 0.75,-0.375 1.125,-0.625 1.25,-0.625 0.188,0 0.313,0.063 0.438,0.188 0.063,0.125 0.125,0.25 0.125,0.438 z"
     id="path4"
     inkscape:connector-curvature="0" />
</svg>
