<?xml version="1.0" encoding="UTF-8" standalone="no"?>
<!-- Generated by IcoMoon.io -->

<svg
   xmlns:dc="http://purl.org/dc/elements/1.1/"
   xmlns:cc="http://creativecommons.org/ns#"
   xmlns:rdf="http://www.w3.org/1999/02/22-rdf-syntax-ns#"
   xmlns:svg="http://www.w3.org/2000/svg"
   xmlns="http://www.w3.org/2000/svg"
   xmlns:sodipodi="http://sodipodi.sourceforge.net/DTD/sodipodi-0.dtd"
   xmlns:inkscape="http://www.inkscape.org/namespaces/inkscape"
   version="1.1"
   width="32"
   height="32"
   viewBox="0 0 32 32"
   id="svg6"
   sodipodi:docname="youtube-play.svg"
   inkscape:version="0.92.2 (5c3e80d, 2017-08-06)">
  <metadata
     id="metadata12">
    <rdf:RDF>
      <cc:Work
         rdf:about="">
        <dc:format>image/svg+xml</dc:format>
        <dc:type
           rdf:resource="http://purl.org/dc/dcmitype/StillImage" />
      </cc:Work>
    </rdf:RDF>
  </metadata>
  <defs
     id="defs10" />
  <sodipodi:namedview
     pagecolor="#ffffff"
     bordercolor="#666666"
     borderopacity="1"
     objecttolerance="10"
     gridtolerance="10"
     guidetolerance="10"
     inkscape:pageopacity="0"
     inkscape:pageshadow="2"
     inkscape:window-width="686"
     inkscape:window-height="480"
     id="namedview8"
     showgrid="false"
     inkscape:zoom="7.375"
     inkscape:cx="16"
     inkscape:cy="16"
     inkscape:window-x="0"
     inkscape:window-y="0"
     inkscape:window-maximized="0"
     inkscape:current-layer="svg6" />
  <title
     id="title2">youtube-play</title>
  <path
     d="m 22.876,16 c 0,-0.438 -0.188,-0.75 -0.563,-0.938 l -9.125,-5.75 c -0.375,-0.25 -0.75,-0.25 -1.188,0 -0.375,0.188 -0.563,0.5 -0.563,1 v 11.375 c 0,0.5 0.188,0.813 0.563,1 0.188,0.125 0.375,0.188 0.563,0.188 0.25,0 0.438,-0.063 0.625,-0.188 l 9.125,-5.75 c 0.375,-0.188 0.563,-0.5 0.563,-0.938 z m 9.125,0 c 0,1.125 0,2.063 0,2.688 0,0.625 -0.063,1.438 -0.188,2.438 -0.063,1 -0.188,1.875 -0.375,2.625 -0.188,0.875 -0.625,1.625 -1.25,2.188 -0.625,0.625 -1.375,0.938 -2.188,1.063 -2.688,0.25 -6.625,0.438 -12,0.438 -5.375,0 -9.313,-0.188 -12,-0.438 C 3.187,26.877 2.437,26.564 1.812,25.939 1.187,25.376 0.749,24.626 0.562,23.751 0.374,23.001 0.249,22.126 0.187,21.126 c -0.125,-1 -0.188,-1.813 -0.188,-2.438 0,-0.625 0,-1.563 0,-2.688 0,-1.125 0,-2.063 0,-2.688 0,-0.625 0.063,-1.438 0.188,-2.438 C 0.25,9.874 0.375,8.999 0.562,8.249 0.75,7.374 1.187,6.624 1.812,6.061 2.437,5.436 3.187,5.123 4,4.998 6.688,4.748 10.625,4.56 16,4.56 c 5.375,0 9.313,0.188 12,0.438 0.813,0.125 1.563,0.438 2.188,1.063 0.625,0.563 1.063,1.313 1.25,2.188 0.188,0.75 0.313,1.625 0.375,2.625 0.125,1 0.188,1.813 0.188,2.438 0,0.625 0,1.563 0,2.688 z"
     id="path4"
     inkscape:connector-curvature="0" />
</svg>
