<?xml version="1.0" encoding="UTF-8" standalone="no"?>
<!-- Generated by IcoMoon.io -->

<svg
   xmlns:dc="http://purl.org/dc/elements/1.1/"
   xmlns:cc="http://creativecommons.org/ns#"
   xmlns:rdf="http://www.w3.org/1999/02/22-rdf-syntax-ns#"
   xmlns:svg="http://www.w3.org/2000/svg"
   xmlns="http://www.w3.org/2000/svg"
   xmlns:sodipodi="http://sodipodi.sourceforge.net/DTD/sodipodi-0.dtd"
   xmlns:inkscape="http://www.inkscape.org/namespaces/inkscape"
   version="1.1"
   width="32"
   height="32"
   viewBox="0 0 32 32"
   id="svg6"
   sodipodi:docname="child.svg"
   inkscape:version="0.92.2 (5c3e80d, 2017-08-06)">
  <metadata
     id="metadata12">
    <rdf:RDF>
      <cc:Work
         rdf:about="">
        <dc:format>image/svg+xml</dc:format>
        <dc:type
           rdf:resource="http://purl.org/dc/dcmitype/StillImage" />
      </cc:Work>
    </rdf:RDF>
  </metadata>
  <defs
     id="defs10" />
  <sodipodi:namedview
     pagecolor="#ffffff"
     bordercolor="#666666"
     borderopacity="1"
     objecttolerance="10"
     gridtolerance="10"
     guidetolerance="10"
     inkscape:pageopacity="0"
     inkscape:pageshadow="2"
     inkscape:window-width="686"
     inkscape:window-height="480"
     id="namedview8"
     showgrid="false"
     inkscape:zoom="7.375"
     inkscape:cx="16"
     inkscape:cy="16"
     inkscape:window-x="0"
     inkscape:window-y="0"
     inkscape:window-maximized="0"
     inkscape:current-layer="svg6" />
  <title
     id="title2">child</title>
  <path
     d="m 25.8135,8.5305 -5.25,5.188 v 14.688 c 0,0.563 -0.188,1.063 -0.563,1.438 -0.438,0.375 -0.875,0.563 -1.438,0.563 -0.563,0 -1,-0.188 -1.375,-0.563 -0.438,-0.375 -0.625,-0.875 -0.625,-1.438 v -6.813 h -1.125 v 6.813 c 0,0.563 -0.188,1.063 -0.625,1.438 -0.375,0.375 -0.813,0.563 -1.375,0.563 -0.562,0 -1,-0.188 -1.438,-0.563 -0.375,-0.375 -0.563,-0.875 -0.563,-1.438 v -14.688 l -5.25,-5.188 c -0.313,-0.375 -0.5,-0.75 -0.5,-1.25 0,-0.438 0.188,-0.875 0.5,-1.188 0.375,-0.375 0.75,-0.5 1.25,-0.5 0.438,0 0.875,0.125 1.188,0.5 l 4.063,4.063 h 6.625 l 4.063,-4.063 c 0.313,-0.375 0.75,-0.5 1.188,-0.5 0.5,0 0.875,0.125 1.25,0.5 0.313,0.313 0.5,0.75 0.5,1.188 0,0.5 -0.188,0.875 -0.5,1.25 z m -5.813,-2.938 c 0,1.063 -0.375,2.063 -1.188,2.813 -0.75,0.75 -1.688,1.188 -2.813,1.188 -1.125,0 -2.063,-0.438 -2.813,-1.188 -0.813,-0.75 -1.188,-1.75 -1.188,-2.813 0,-1.125 0.375,-2.063 1.188,-2.875 0.75,-0.75 1.688,-1.125 2.813,-1.125 1.125,0 2.063,0.375 2.813,1.125 0.813,0.813 1.188,1.75 1.188,2.875 z"
     id="path4"
     inkscape:connector-curvature="0" />
</svg>
