<?xml version="1.0" encoding="UTF-8" standalone="no"?>
<!-- Generated by IcoMoon.io -->

<svg
   xmlns:dc="http://purl.org/dc/elements/1.1/"
   xmlns:cc="http://creativecommons.org/ns#"
   xmlns:rdf="http://www.w3.org/1999/02/22-rdf-syntax-ns#"
   xmlns:svg="http://www.w3.org/2000/svg"
   xmlns="http://www.w3.org/2000/svg"
   xmlns:sodipodi="http://sodipodi.sourceforge.net/DTD/sodipodi-0.dtd"
   xmlns:inkscape="http://www.inkscape.org/namespaces/inkscape"
   version="1.1"
   width="32"
   height="32"
   viewBox="0 0 32 32"
   id="svg2"
   inkscape:version="0.48.0 r9654"
   sodipodi:docname="cloud-minus.svg">
  <metadata
     id="metadata12">
    <rdf:RDF>
      <cc:Work
         rdf:about="">
        <dc:format>image/svg+xml</dc:format>
        <dc:type
           rdf:resource="http://purl.org/dc/dcmitype/StillImage" />
      </cc:Work>
    </rdf:RDF>
  </metadata>
  <defs
     id="defs10" />
  <sodipodi:namedview
     pagecolor="#ffffff"
     bordercolor="#666666"
     borderopacity="1"
     objecttolerance="10"
     gridtolerance="10"
     guidetolerance="10"
     inkscape:pageopacity="0"
     inkscape:pageshadow="2"
     inkscape:window-width="1920"
     inkscape:window-height="1017"
     id="namedview8"
     showgrid="false"
     inkscape:zoom="8.15625"
     inkscape:cx="1.348659"
     inkscape:cy="16"
     inkscape:window-x="1912"
     inkscape:window-y="-8"
     inkscape:window-maximized="1"
     inkscape:current-layer="svg2" />
  <title
     id="title4">cloud-minus</title>
  <path
     d="m 13.562,5.5 c -2.688,0 -5.063,1 -7,2.875 -1.875,1.875 -2.875,4.25 -2.875,6.938 0,0.25 0.063,0.438 0.063,0.625 -0.938,0.375 -1.875,0.813 -2.563,1.625 -0.75,1 -1.188,2.125 -1.188,3.438 0,1.5 0.563,2.813 1.563,3.875 1.063,1.063 2.438,1.625 3.875,1.625 h 18.688 c 2.125,0 4,-0.813 5.563,-2.313 v 0 c 1.563,-1.563 2.313,-3.5 2.313,-5.688 0,-2.125 -0.75,-4.063 -2.313,-5.625 -1.5,-1.563 -3.438,-2.313 -5.563,-2.313 -0.625,0 -1.313,0.125 -1.938,0.25 -0.75,-1.5 -1.875,-2.75 -3.313,-3.75 C 17.249,5.999 15.499,5.499 13.561,5.499 z m 0,1.313 c 1.688,0 3.188,0.5 4.625,1.375 1.375,0.938 2.375,2.125 3.063,3.625 l 0.25,0.563 0.563,-0.188 c 0.688,-0.188 1.375,-0.313 2.063,-0.313 1.813,0 3.313,0.625 4.625,1.938 1.313,1.375 1.938,2.875 1.938,4.688 0,1.875 -0.625,3.375 -1.938,4.688 -1.313,1.313 -2.813,2 -4.625,2 H 5.438 c -1.125,0 -2.063,-0.438 -2.875,-1.25 -0.875,-0.875 -1.25,-1.75 -1.25,-2.938 0,-1 0.313,-1.875 0.938,-2.625 0.625,-0.75 1.375,-1.25 2.313,-1.438 L 5.189,16.813 5.064,16.188 c 0,-0.125 0,-0.438 0,-0.875 0,-2.375 0.813,-4.313 2.5,-6 1.688,-1.625 3.625,-2.5 6,-2.5 z m -3.125,9.5 c -0.563,0.063 -0.938,0.563 -0.875,1.125 0.063,0.562 0.563,0.938 1.125,0.875 h 10.625 c 0.375,0 0.688,-0.188 0.875,-0.5 0.187,-0.312 0.188,-0.688 0,-1 -0.188,-0.313 -0.5,-0.5 -0.875,-0.5 H 10.687 c -0.063,0 -0.188,0 -0.25,0 z"
     id="path6"
     inkscape:connector-curvature="0" />
</svg>
