<?xml version="1.0" encoding="UTF-8" standalone="no"?>
<!-- Generated by IcoMoon.io -->

<svg
   xmlns:dc="http://purl.org/dc/elements/1.1/"
   xmlns:cc="http://creativecommons.org/ns#"
   xmlns:rdf="http://www.w3.org/1999/02/22-rdf-syntax-ns#"
   xmlns:svg="http://www.w3.org/2000/svg"
   xmlns="http://www.w3.org/2000/svg"
   xmlns:sodipodi="http://sodipodi.sourceforge.net/DTD/sodipodi-0.dtd"
   xmlns:inkscape="http://www.inkscape.org/namespaces/inkscape"
   version="1.1"
   width="32"
   height="32"
   viewBox="0 0 32 32"
   id="svg2"
   inkscape:version="0.48.0 r9654"
   sodipodi:docname="folder-minus.svg">
  <metadata
     id="metadata12">
    <rdf:RDF>
      <cc:Work
         rdf:about="">
        <dc:format>image/svg+xml</dc:format>
        <dc:type
           rdf:resource="http://purl.org/dc/dcmitype/StillImage" />
      </cc:Work>
    </rdf:RDF>
  </metadata>
  <defs
     id="defs10" />
  <sodipodi:namedview
     pagecolor="#ffffff"
     bordercolor="#666666"
     borderopacity="1"
     objecttolerance="10"
     gridtolerance="10"
     guidetolerance="10"
     inkscape:pageopacity="0"
     inkscape:pageshadow="2"
     inkscape:window-width="1920"
     inkscape:window-height="1017"
     id="namedview8"
     showgrid="false"
     inkscape:zoom="8.15625"
     inkscape:cx="1.348659"
     inkscape:cy="16"
     inkscape:window-x="1912"
     inkscape:window-y="-8"
     inkscape:window-maximized="1"
     inkscape:current-layer="svg2" />
  <title
     id="title4">folder-minus</title>
  <path
     d="m 2.6875,2.6875 c -1.313,0 -2.688,1.313 -2.688,2.625 v 21.375 c 0,1.313 1.375,2.625 2.688,2.625 h 26.625 c 1.313,0 2.688,-1.313 2.688,-2.625 V 9.3125 c 0,-1.313 -1.375,-2.625 -2.688,-2.625 h -14.625 v -1.375 c 0,-1.313 -1.375,-2.625 -2.688,-2.625 z m 0,2.625 h 9.313 v 4 h 17.313 v 17.375 H 2.6885 c 0,-7.125 0,-14.25 0,-21.375 z m 7.875,12 c -0.75,0.063 -1.313,0.688 -1.313,1.438 0.063,0.688 0.688,1.313 1.438,1.25 h 10.625 c 0.5,0 0.938,-0.25 1.188,-0.688 0.25,-0.375 0.25,-0.875 0,-1.313 -0.25,-0.438 -0.688,-0.688 -1.188,-0.688 h -10.625 c -0.063,0 -0.125,0 -0.125,0 z"
     id="path6"
     inkscape:connector-curvature="0" />
</svg>
