<?xml version="1.0" encoding="UTF-8" standalone="no"?>
<!-- Generated by IcoMoon.io -->

<svg
   xmlns:dc="http://purl.org/dc/elements/1.1/"
   xmlns:cc="http://creativecommons.org/ns#"
   xmlns:rdf="http://www.w3.org/1999/02/22-rdf-syntax-ns#"
   xmlns:svg="http://www.w3.org/2000/svg"
   xmlns="http://www.w3.org/2000/svg"
   xmlns:sodipodi="http://sodipodi.sourceforge.net/DTD/sodipodi-0.dtd"
   xmlns:inkscape="http://www.inkscape.org/namespaces/inkscape"
   version="1.1"
   width="32"
   height="32"
   viewBox="0 0 32 32"
   id="svg2"
   inkscape:version="0.48.0 r9654"
   sodipodi:docname="heart.svg">
  <metadata
     id="metadata12">
    <rdf:RDF>
      <cc:Work
         rdf:about="">
        <dc:format>image/svg+xml</dc:format>
        <dc:type
           rdf:resource="http://purl.org/dc/dcmitype/StillImage" />
      </cc:Work>
    </rdf:RDF>
  </metadata>
  <defs
     id="defs10" />
  <sodipodi:namedview
     pagecolor="#ffffff"
     bordercolor="#666666"
     borderopacity="1"
     objecttolerance="10"
     gridtolerance="10"
     guidetolerance="10"
     inkscape:pageopacity="0"
     inkscape:pageshadow="2"
     inkscape:window-width="1920"
     inkscape:window-height="1017"
     id="namedview8"
     showgrid="false"
     inkscape:zoom="8.15625"
     inkscape:cx="1.348659"
     inkscape:cy="16"
     inkscape:window-x="1912"
     inkscape:window-y="-8"
     inkscape:window-maximized="1"
     inkscape:current-layer="svg2" />
  <title
     id="title4">heart</title>
  <path
     d="m 16.001,29.6885 c -0.313,0 -0.563,-0.063 -0.813,-0.313 L 4.063,18.6255 c -0.125,-0.063 -0.25,-0.25 -0.5,-0.438 -0.188,-0.25 -0.5,-0.625 -1,-1.188 -0.438,-0.563 -0.813,-1.125 -1.188,-1.75 -0.375,-0.563 -0.688,-1.313 -0.938,-2.125 -0.313,-0.875 -0.438,-1.688 -0.438,-2.5 0,-2.625 0.75,-4.625 2.25,-6.125 1.5,-1.5 3.625,-2.188 6.313,-2.188 0.688,0 1.438,0.125 2.25,0.375 0.75,0.25 1.438,0.563 2.125,1 0.687,0.437 1.25,0.875 1.688,1.25 0.5,0.375 0.938,0.75 1.375,1.188 0.438,-0.438 0.875,-0.813 1.375,-1.188 0.438,-0.375 1,-0.813 1.688,-1.25 0.688,-0.437 1.375,-0.75 2.125,-1 0.813,-0.25 1.563,-0.375 2.25,-0.375 2.688,0 4.813,0.688 6.313,2.188 1.5,1.5 2.25,3.5 2.25,6.125 0,2.625 -1.375,5.313 -4.063,8.063 l -11.125,10.688 c -0.25,0.25 -0.5,0.313 -0.813,0.313 z"
     id="path6"
     inkscape:connector-curvature="0" />
</svg>
