<?xml version="1.0" encoding="UTF-8" standalone="no"?>
<!-- Generated by IcoMoon.io -->

<svg
   xmlns:dc="http://purl.org/dc/elements/1.1/"
   xmlns:cc="http://creativecommons.org/ns#"
   xmlns:rdf="http://www.w3.org/1999/02/22-rdf-syntax-ns#"
   xmlns:svg="http://www.w3.org/2000/svg"
   xmlns="http://www.w3.org/2000/svg"
   xmlns:sodipodi="http://sodipodi.sourceforge.net/DTD/sodipodi-0.dtd"
   xmlns:inkscape="http://www.inkscape.org/namespaces/inkscape"
   version="1.1"
   width="32"
   height="32"
   viewBox="0 0 32 32"
   id="svg2"
   inkscape:version="0.48.0 r9654"
   sodipodi:docname="more-content.svg">
  <metadata
     id="metadata12">
    <rdf:RDF>
      <cc:Work
         rdf:about="">
        <dc:format>image/svg+xml</dc:format>
        <dc:type
           rdf:resource="http://purl.org/dc/dcmitype/StillImage" />
      </cc:Work>
    </rdf:RDF>
  </metadata>
  <defs
     id="defs10" />
  <sodipodi:namedview
     pagecolor="#ffffff"
     bordercolor="#666666"
     borderopacity="1"
     objecttolerance="10"
     gridtolerance="10"
     guidetolerance="10"
     inkscape:pageopacity="0"
     inkscape:pageshadow="2"
     inkscape:window-width="1920"
     inkscape:window-height="1017"
     id="namedview8"
     showgrid="false"
     inkscape:zoom="8.15625"
     inkscape:cx="1.348659"
     inkscape:cy="16"
     inkscape:window-x="-8"
     inkscape:window-y="-8"
     inkscape:window-maximized="1"
     inkscape:current-layer="svg2" />
  <title
     id="title4">more-content</title>
  <path
     d="M 26,7 H 11 C 10.312,7 9.812,7.313 9.375,7.875 L 4,16 9.375,24.125 c 0.438,0.5 1,0.875 1.75,0.875 H 26 c 1.125,0 2,-0.875 2,-2 V 9 C 28,7.875 27.125,7 26,7 z M 13,17.5 c -0.813,0 -1.5,-0.688 -1.5,-1.5 0,-0.812 0.688,-1.5 1.5,-1.5 0.813,0 1.5,0.688 1.5,1.5 0,0.812 -0.688,1.5 -1.5,1.5 z m 5,0 c -0.813,0 -1.5,-0.688 -1.5,-1.5 0,-0.812 0.688,-1.5 1.5,-1.5 0.813,0 1.5,0.688 1.5,1.5 0,0.812 -0.688,1.5 -1.5,1.5 z m 5,0 c -0.813,0 -1.5,-0.688 -1.5,-1.5 0,-0.812 0.688,-1.5 1.5,-1.5 0.813,0 1.5,0.688 1.5,1.5 0,0.812 -0.688,1.5 -1.5,1.5 z"
     id="path6"
     inkscape:connector-curvature="0" />
</svg>
