<?xml version="1.0" encoding="UTF-8" standalone="no"?>
<!-- Generated by IcoMoon.io -->

<svg
   xmlns:dc="http://purl.org/dc/elements/1.1/"
   xmlns:cc="http://creativecommons.org/ns#"
   xmlns:rdf="http://www.w3.org/1999/02/22-rdf-syntax-ns#"
   xmlns:svg="http://www.w3.org/2000/svg"
   xmlns="http://www.w3.org/2000/svg"
   xmlns:sodipodi="http://sodipodi.sourceforge.net/DTD/sodipodi-0.dtd"
   xmlns:inkscape="http://www.inkscape.org/namespaces/inkscape"
   version="1.1"
   width="32"
   height="32"
   viewBox="0 0 32 32"
   id="svg6"
   sodipodi:docname="mute.svg"
   inkscape:version="0.92.2 (5c3e80d, 2017-08-06)">
  <metadata
     id="metadata12">
    <rdf:RDF>
      <cc:Work
         rdf:about="">
        <dc:format>image/svg+xml</dc:format>
        <dc:type
           rdf:resource="http://purl.org/dc/dcmitype/StillImage" />
      </cc:Work>
    </rdf:RDF>
  </metadata>
  <defs
     id="defs10" />
  <sodipodi:namedview
     pagecolor="#ffffff"
     bordercolor="#666666"
     borderopacity="1"
     objecttolerance="10"
     gridtolerance="10"
     guidetolerance="10"
     inkscape:pageopacity="0"
     inkscape:pageshadow="2"
     inkscape:window-width="686"
     inkscape:window-height="480"
     id="namedview8"
     showgrid="false"
     inkscape:zoom="7.375"
     inkscape:cx="16"
     inkscape:cy="16"
     inkscape:window-x="0"
     inkscape:window-y="0"
     inkscape:window-maximized="0"
     inkscape:current-layer="svg6" />
  <title
     id="title2">mute</title>
  <path
     d="m 28.6255,11.3135 c -0.375,-0.438 -1.063,-0.438 -1.438,0 l -3.25,3.25 -3.25,-3.25 c -0.25,-0.25 -0.625,-0.375 -1,-0.25 -0.375,0.063 -0.625,0.313 -0.688,0.688 -0.125,0.375 0,0.75 0.25,1 l 3.25,3.25 -3.25,3.25 c -0.25,0.25 -0.375,0.625 -0.25,1 0.063,0.375 0.313,0.625 0.688,0.688 0.375,0.125 0.75,0 1,-0.25 l 3.25,-3.25 3.25,3.25 c 0.25,0.25 0.625,0.375 1,0.25 0.375,-0.063 0.625,-0.313 0.688,-0.688 0.125,-0.375 0,-0.75 -0.25,-1 l -3.25,-3.25 3.25,-3.25 c 0.188,-0.188 0.313,-0.438 0.313,-0.75 0,-0.25 -0.125,-0.5 -0.313,-0.688 z m -11.813,-5 v 19.375 c 0,0.313 -0.125,0.625 -0.375,0.813 -0.188,0.25 -0.5,0.375 -0.813,0.375 -0.313,0 -0.563,-0.125 -0.75,-0.375 l -6,-5.938 h -4.625 c -0.313,0 -0.625,-0.125 -0.813,-0.313 -0.25,-0.25 -0.375,-0.5 -0.375,-0.813 v -6.875 c 0,-0.313 0.125,-0.563 0.375,-0.813 0.188,-0.188 0.5,-0.313 0.813,-0.313 h 4.625 l 6,-5.938 c 0.188,-0.25 0.438,-0.375 0.75,-0.375 0.312,0 0.625,0.125 0.813,0.375 0.25,0.188 0.375,0.5 0.375,0.813 z"
     id="path4"
     inkscape:connector-curvature="0" />
</svg>
