<?xml version="1.0" encoding="UTF-8" standalone="no"?>
<!-- Generated by IcoMoon.io -->

<svg
   xmlns:dc="http://purl.org/dc/elements/1.1/"
   xmlns:cc="http://creativecommons.org/ns#"
   xmlns:rdf="http://www.w3.org/1999/02/22-rdf-syntax-ns#"
   xmlns:svg="http://www.w3.org/2000/svg"
   xmlns="http://www.w3.org/2000/svg"
   xmlns:sodipodi="http://sodipodi.sourceforge.net/DTD/sodipodi-0.dtd"
   xmlns:inkscape="http://www.inkscape.org/namespaces/inkscape"
   version="1.1"
   width="32"
   height="32"
   viewBox="0 0 32 32"
   id="svg2"
   inkscape:version="0.48.0 r9654"
   sodipodi:docname="save.svg">
  <metadata
     id="metadata12">
    <rdf:RDF>
      <cc:Work
         rdf:about="">
        <dc:format>image/svg+xml</dc:format>
        <dc:type
           rdf:resource="http://purl.org/dc/dcmitype/StillImage" />
      </cc:Work>
    </rdf:RDF>
  </metadata>
  <defs
     id="defs10" />
  <sodipodi:namedview
     pagecolor="#ffffff"
     bordercolor="#666666"
     borderopacity="1"
     objecttolerance="10"
     gridtolerance="10"
     guidetolerance="10"
     inkscape:pageopacity="0"
     inkscape:pageshadow="2"
     inkscape:window-width="1920"
     inkscape:window-height="1017"
     id="namedview8"
     showgrid="false"
     inkscape:zoom="8.15625"
     inkscape:cx="1.348659"
     inkscape:cy="16"
     inkscape:window-x="1912"
     inkscape:window-y="-8"
     inkscape:window-maximized="1"
     inkscape:current-layer="svg2" />
  <title
     id="title4">save</title>
  <path
     d="m 7,27.0005 c -0.5,0 -1,0.5 -1,1 0,0.5 0.5,1 1,1 h 18 c 0.5,0 1,-0.5 1,-1 0,-0.5 -0.5,-1 -1,-1 z m 8.375,-24 c -0.188,0 -0.375,0.063 -0.438,0.125 -0.125,0.125 -0.188,0.25 -0.188,0.438 v 15 l -5.75,-5.813 c -0.125,-0.063 -0.25,-0.125 -0.438,-0.125 -0.125,0 -0.313,0.063 -0.375,0.125 l -0.938,0.938 c -0.125,0.125 -0.188,0.25 -0.188,0.375 0,0.188 0.063,0.313 0.188,0.438 l 8.313,8.313 c 0.125,0.125 0.313,0.188 0.438,0.188 0.125,0 0.313,-0.063 0.438,-0.188 l 8.313,-8.313 c 0.125,-0.125 0.188,-0.25 0.188,-0.438 0,-0.125 -0.063,-0.25 -0.188,-0.375 l -0.938,-0.938 c -0.063,-0.063 -0.25,-0.125 -0.375,-0.125 -0.188,0 -0.313,0.063 -0.438,0.125 l -5.813,5.875 0.063,-15.063 c -0.063,-0.125 -0.063,-0.25 -0.188,-0.375 -0.125,-0.063 -0.313,-0.188 -0.375,-0.188 z"
     id="path6"
     inkscape:connector-curvature="0" />
</svg>
