<?xml version="1.0" encoding="UTF-8" standalone="no"?>
<!-- Generated by IcoMoon.io -->

<svg
   xmlns:dc="http://purl.org/dc/elements/1.1/"
   xmlns:cc="http://creativecommons.org/ns#"
   xmlns:rdf="http://www.w3.org/1999/02/22-rdf-syntax-ns#"
   xmlns:svg="http://www.w3.org/2000/svg"
   xmlns="http://www.w3.org/2000/svg"
   xmlns:sodipodi="http://sodipodi.sourceforge.net/DTD/sodipodi-0.dtd"
   xmlns:inkscape="http://www.inkscape.org/namespaces/inkscape"
   version="1.1"
   width="32"
   height="32"
   viewBox="0 0 32 32"
   id="svg6"
   sodipodi:docname="share.svg"
   inkscape:version="0.92.2 (5c3e80d, 2017-08-06)">
  <metadata
     id="metadata12">
    <rdf:RDF>
      <cc:Work
         rdf:about="">
        <dc:format>image/svg+xml</dc:format>
        <dc:type
           rdf:resource="http://purl.org/dc/dcmitype/StillImage" />
      </cc:Work>
    </rdf:RDF>
  </metadata>
  <defs
     id="defs10" />
  <sodipodi:namedview
     pagecolor="#ffffff"
     bordercolor="#666666"
     borderopacity="1"
     objecttolerance="10"
     gridtolerance="10"
     guidetolerance="10"
     inkscape:pageopacity="0"
     inkscape:pageshadow="2"
     inkscape:window-width="686"
     inkscape:window-height="480"
     id="namedview8"
     showgrid="false"
     inkscape:zoom="7.375"
     inkscape:cx="16"
     inkscape:cy="16"
     inkscape:window-x="0"
     inkscape:window-y="0"
     inkscape:window-maximized="0"
     inkscape:current-layer="svg6" />
  <title
     id="title2">share</title>
  <path
     d="m 24,21.5015 c -1,0 -1.938,0.375 -2.625,1 l -9.5,-5.5 c 0.063,-0.313 0.125,-0.625 0.125,-0.938 0,-0.313 -0.063,-0.625 -0.125,-0.938 l 9.375,-5.5 c 0.75,0.688 1.688,1.125 2.75,1.125 2.188,0 4,-1.813 4,-4 0,-2.25 -1.813,-4 -4,-4 -2.187,0 -4,1.75 -4,4 0,0.313 0.063,0.625 0.125,0.875 l -9.375,5.5 C 10,12.4375 9.062,12.0625 8,12.0625 c -2.188,0 -4,1.75 -4,4 0,2.188 1.813,4 4,4 1.063,0 2,-0.438 2.75,-1.063 l 9.438,5.5 c -0.063,0.313 -0.063,0.563 -0.063,0.875 0,2.188 1.75,3.875 3.875,3.875 2.125,0 3.875,-1.688 3.875,-3.875 0,-2.125 -1.75,-3.875 -3.875,-3.875 z"
     id="path4"
     inkscape:connector-curvature="0" />
</svg>
