<?xml version="1.0" encoding="UTF-8" standalone="no"?>
<!-- Generated by IcoMoon.io -->

<svg
   xmlns:dc="http://purl.org/dc/elements/1.1/"
   xmlns:cc="http://creativecommons.org/ns#"
   xmlns:rdf="http://www.w3.org/1999/02/22-rdf-syntax-ns#"
   xmlns:svg="http://www.w3.org/2000/svg"
   xmlns="http://www.w3.org/2000/svg"
   xmlns:sodipodi="http://sodipodi.sourceforge.net/DTD/sodipodi-0.dtd"
   xmlns:inkscape="http://www.inkscape.org/namespaces/inkscape"
   version="1.1"
   width="32"
   height="32"
   viewBox="0 0 32 32"
   id="svg6"
   sodipodi:docname="star.svg"
   inkscape:version="0.92.2 (5c3e80d, 2017-08-06)">
  <metadata
     id="metadata12">
    <rdf:RDF>
      <cc:Work
         rdf:about="">
        <dc:format>image/svg+xml</dc:format>
        <dc:type
           rdf:resource="http://purl.org/dc/dcmitype/StillImage" />
      </cc:Work>
    </rdf:RDF>
  </metadata>
  <defs
     id="defs10" />
  <sodipodi:namedview
     pagecolor="#ffffff"
     bordercolor="#666666"
     borderopacity="1"
     objecttolerance="10"
     gridtolerance="10"
     guidetolerance="10"
     inkscape:pageopacity="0"
     inkscape:pageshadow="2"
     inkscape:window-width="686"
     inkscape:window-height="480"
     id="namedview8"
     showgrid="false"
     inkscape:zoom="7.375"
     inkscape:cx="16"
     inkscape:cy="16"
     inkscape:window-x="0"
     inkscape:window-y="0"
     inkscape:window-maximized="0"
     inkscape:current-layer="svg6" />
  <title
     id="title2">star</title>
  <path
     d="m 30.876,12.812 c 0,0.25 -0.188,0.563 -0.5,0.875 L 23.938,20 l 1.5,8.938 c 0,0.063 0,0.188 0,0.313 0,0.25 -0.063,0.5 -0.188,0.625 -0.125,0.188 -0.25,0.313 -0.5,0.313 -0.25,0 -0.5,-0.125 -0.75,-0.25 l -8,-4.188 -8,4.188 c -0.25,0.125 -0.5,0.25 -0.75,0.25 -0.25,0 -0.438,-0.125 -0.563,-0.313 -0.125,-0.125 -0.188,-0.375 -0.188,-0.625 0,-0.063 0,-0.188 0.063,-0.313 L 8.062,20 1.562,13.687 c -0.25,-0.375 -0.438,-0.625 -0.438,-0.875 0,-0.438 0.375,-0.75 1,-0.813 l 9,-1.313 4,-8.125 c 0.25,-0.5 0.5,-0.75 0.875,-0.75 0.375,0 0.625,0.25 0.875,0.75 l 4,8.125 9,1.313 c 0.625,0.063 1,0.375 1,0.813 z"
     id="path4"
     inkscape:connector-curvature="0" />
</svg>
