<?xml version="1.0" encoding="UTF-8" standalone="no"?>
<!-- Generated by IcoMoon.io -->

<svg
   xmlns:dc="http://purl.org/dc/elements/1.1/"
   xmlns:cc="http://creativecommons.org/ns#"
   xmlns:rdf="http://www.w3.org/1999/02/22-rdf-syntax-ns#"
   xmlns:svg="http://www.w3.org/2000/svg"
   xmlns="http://www.w3.org/2000/svg"
   xmlns:sodipodi="http://sodipodi.sourceforge.net/DTD/sodipodi-0.dtd"
   xmlns:inkscape="http://www.inkscape.org/namespaces/inkscape"
   version="1.1"
   width="32"
   height="32"
   viewBox="0 0 32 32"
   id="svg6"
   sodipodi:docname="twitter-square.svg"
   inkscape:version="0.92.2 (5c3e80d, 2017-08-06)">
  <metadata
     id="metadata12">
    <rdf:RDF>
      <cc:Work
         rdf:about="">
        <dc:format>image/svg+xml</dc:format>
        <dc:type
           rdf:resource="http://purl.org/dc/dcmitype/StillImage" />
      </cc:Work>
    </rdf:RDF>
  </metadata>
  <defs
     id="defs10" />
  <sodipodi:namedview
     pagecolor="#ffffff"
     bordercolor="#666666"
     borderopacity="1"
     objecttolerance="10"
     gridtolerance="10"
     guidetolerance="10"
     inkscape:pageopacity="0"
     inkscape:pageshadow="2"
     inkscape:window-width="686"
     inkscape:window-height="480"
     id="namedview8"
     showgrid="false"
     inkscape:zoom="7.375"
     inkscape:cx="16"
     inkscape:cy="16"
     inkscape:window-x="0"
     inkscape:window-y="0"
     inkscape:window-maximized="0"
     inkscape:current-layer="svg6" />
  <title
     id="title2">twitter-square</title>
  <path
     d="m 25.1245,10.8745 c -0.625,0.313 -1.375,0.5 -2.125,0.625 0.813,-0.5 1.375,-1.188 1.625,-2.063 -0.75,0.438 -1.563,0.75 -2.375,0.875 -0.75,-0.75 -1.625,-1.188 -2.75,-1.188 -1,0 -1.875,0.375 -2.625,1.125 -0.75,0.75 -1.125,1.625 -1.125,2.625 0,0.375 0.063,0.625 0.125,0.875 -1.563,-0.063 -3,-0.5 -4.313,-1.188 -1.375,-0.688 -2.5,-1.563 -3.438,-2.75 -0.375,0.625 -0.563,1.25 -0.563,1.875 0,1.375 0.563,2.438 1.625,3.125 -0.563,0 -1.125,-0.125 -1.75,-0.438 v 0.063 c 0,0.875 0.313,1.688 0.875,2.375 0.625,0.688 1.313,1.125 2.188,1.25 -0.313,0.125 -0.625,0.188 -0.875,0.188 -0.188,0 -0.375,-0.063 -0.688,-0.063 0.25,0.75 0.688,1.313 1.313,1.813 0.625,0.5 1.375,0.75 2.188,0.75 -1.438,1.063 -2.938,1.625 -4.688,1.625 -0.313,0 -0.625,0 -0.875,-0.063 1.75,1.125 3.688,1.688 5.75,1.688 1.313,0 2.563,-0.188 3.75,-0.625 1.125,-0.438 2.125,-1 3,-1.688 0.813,-0.75 1.563,-1.563 2.125,-2.438 0.625,-0.938 1.063,-1.938 1.375,-2.938 0.25,-1 0.438,-2 0.438,-3 0,-0.188 -0.063,-0.375 -0.063,-0.5 0.75,-0.5 1.375,-1.188 1.875,-1.938 z m 4.563,-3.437 v 17.125 c 0,1.438 -0.5,2.625 -1.5,3.625 -1,1 -2.188,1.5 -3.625,1.5 H 7.4375 c -1.438,0 -2.625,-0.5 -3.625,-1.5 -1,-1 -1.5,-2.188 -1.5,-3.625 V 7.4375 c 0,-1.438 0.5,-2.625 1.5,-3.625 1,-1 2.188,-1.5 3.625,-1.5 h 17.125 c 1.438,0 2.625,0.5 3.625,1.5 1,1 1.5,2.188 1.5,3.625 z"
     id="path4"
     inkscape:connector-curvature="0" />
</svg>
