<?xml version="1.0" encoding="UTF-8" standalone="no"?>
<!-- Generated by IcoMoon.io -->

<svg
   xmlns:dc="http://purl.org/dc/elements/1.1/"
   xmlns:cc="http://creativecommons.org/ns#"
   xmlns:rdf="http://www.w3.org/1999/02/22-rdf-syntax-ns#"
   xmlns:svg="http://www.w3.org/2000/svg"
   xmlns="http://www.w3.org/2000/svg"
   xmlns:sodipodi="http://sodipodi.sourceforge.net/DTD/sodipodi-0.dtd"
   xmlns:inkscape="http://www.inkscape.org/namespaces/inkscape"
   version="1.1"
   width="32"
   height="32"
   viewBox="0 0 32 32"
   id="svg2"
   inkscape:version="0.48.0 r9654"
   sodipodi:docname="user.svg">
  <metadata
     id="metadata12">
    <rdf:RDF>
      <cc:Work
         rdf:about="">
        <dc:format>image/svg+xml</dc:format>
        <dc:type
           rdf:resource="http://purl.org/dc/dcmitype/StillImage" />
      </cc:Work>
    </rdf:RDF>
  </metadata>
  <defs
     id="defs10" />
  <sodipodi:namedview
     pagecolor="#ffffff"
     bordercolor="#666666"
     borderopacity="1"
     objecttolerance="10"
     gridtolerance="10"
     guidetolerance="10"
     inkscape:pageopacity="0"
     inkscape:pageshadow="2"
     inkscape:window-width="1920"
     inkscape:window-height="1017"
     id="namedview8"
     showgrid="false"
     inkscape:zoom="8.15625"
     inkscape:cx="1.348659"
     inkscape:cy="16"
     inkscape:window-x="1912"
     inkscape:window-y="-8"
     inkscape:window-maximized="1"
     inkscape:current-layer="svg2" />
  <title
     id="title4">user</title>
  <path
     d="m 9.999,3 c -3.063,0 -5.5,2.438 -5.5,5.5 0,1.875 0.938,3.5 2.375,4.5 -2.688,0.063 -4.875,2.25 -4.875,5 v 5 h 11.063 l 2.063,3.563 3,-1.75 c 0.375,0.313 0.813,0.5 1.313,0.75 v 3.438 h 4.125 v -3.438 c 0.5,-0.25 0.938,-0.5 1.375,-0.75 l 3,1.75 L 30.001,23 27.063,21.312 c 0,-0.25 0.063,-0.5 0.063,-0.75 0,-0.313 -0.063,-0.5 -0.125,-0.75 l 3,-1.75 -2.063,-3.563 -3,1.688 C 24.5,15.874 24.063,15.624 23.563,15.437 v -3.438 h -4.125 v 3.438 c -0.5,0.188 -0.938,0.438 -1.313,0.75 L 17.5,15.874 c -0.813,-1.688 -2.438,-2.813 -4.375,-2.875 1.438,-1 2.375,-2.625 2.375,-4.5 0,-3.063 -2.438,-5.5 -5.5,-5.5 z m 0,1 c 2.5,0 4.5,2 4.5,4.5 0,2.5 -2,4.5 -4.5,4.5 -2.5,0 -4.5,-2 -4.5,-4.5 0,-2.5 2,-4.5 4.5,-4.5 z m 10.375,8.938 h 2.313 v 3.125 L 23,16.126 c 0.563,0.188 1.125,0.563 1.625,1 l 0.25,0.188 2.75,-1.563 1.125,2 -2.75,1.563 0.063,0.313 c 0.063,0.313 0.125,0.563 0.125,0.938 0,0.25 -0.063,0.625 -0.125,0.875 L 26,21.753 l 2.75,1.563 -1.125,2 -2.75,-1.625 -0.25,0.25 c -0.5,0.375 -1.063,0.75 -1.625,0.938 l -0.313,0.125 v 3.125 h -2.313 v -3.125 l -0.313,-0.125 c -0.625,-0.188 -1.188,-0.563 -1.625,-0.938 l -0.25,-0.25 -2.75,1.625 -1.125,-2 2.75,-1.563 -0.063,-0.313 c -0.125,-0.313 -0.125,-0.625 -0.125,-0.938 0,-0.313 0,-0.625 0.125,-0.938 l 0.063,-0.313 -2.75,-1.563 1.125,-1.938 2.75,1.563 0.25,-0.188 c 0.438,-0.438 1,-0.813 1.625,-1 l 0.313,-0.063 z M 7.374,14 h 5.25 c 0.875,0 1.688,0.25 2.375,0.688 l -2,3.375 3,1.688 c -0.063,0.25 -0.063,0.5 -0.063,0.75 0,0.25 0,0.5 0.063,0.813 l -1.25,0.688 H 2.999 v -4 c 0,-2.188 1.938,-4 4.375,-4 z m 14.063,3.75 c -1.5,0 -2.75,1.188 -2.75,2.75 0,1.5 1.25,2.688 2.75,2.688 1.5,0 2.813,-1.188 2.813,-2.688 0,-1.563 -1.313,-2.75 -2.813,-2.75 z m 0,0.938 c 1.063,0 1.875,0.75 1.875,1.813 0,1 -0.813,1.813 -1.875,1.813 -1.062,0 -1.813,-0.813 -1.813,-1.813 0,-1.063 0.75,-1.813 1.813,-1.813 z"
     id="path6"
     inkscape:connector-curvature="0" />
</svg>
